{"glyphs":{"0":{"ha":1368,"x_min":79,"x_max":1649,"o":"m 878 1157 q 918 1156 904 1157 q 949 1147 932 1154 l 1044 1033 l 1635 190 q 1642 138 1635 174 q 1649 82 1649 101 q 1632 26 1649 49 l 1579 4 l 768 0 l 664 42 l 135 513 l 113 547 l 79 1104 q 95 1128 79 1119 q 129 1138 111 1138 q 378 1142 253 1138 q 651 1151 504 1146 q 878 1157 797 1157 m 881 1142 l 122 1131 q 99 1090 99 1119 q 107 1065 99 1076 l 708 131 l 753 101 l 1600 110 q 1629 156 1629 121 q 1613 201 1629 181 l 1004 1065 q 951 1119 978 1092 q 881 1142 918 1146 m 801 846 q 901 692 844 774 q 1015 527 958 610 q 1108 369 1071 444 q 1050 350 1090 350 q 1013 353 1038 350 q 975 356 988 356 q 858 524 917 435 q 735 713 800 613 q 628 872 669 814 q 631 899 628 889 q 647 907 633 908 q 750 898 715 907 q 801 846 785 889 z "},"1":{"ha":863,"x_min":54,"x_max":1140,"o":"m 478 1153 q 688 829 589 986 q 951 403 786 672 q 1140 93 1115 133 q 1139 78 1139 89 q 1140 40 1140 53 q 1121 6 1140 11 q 992 3 1053 6 q 844 -3 931 0 q 679 13 750 -3 l 54 561 l 54 1149 l 76 1157 l 478 1153 m 138 1142 q 115 1135 125 1138 q 103 1125 106 1132 l 717 100 q 946 103 813 100 q 1099 107 1079 107 q 890 459 1006 267 q 708 758 774 651 q 464 1142 642 864 l 138 1142 z "},"2":{"ha":1294,"x_min":76,"x_max":1608,"o":"m 947 1144 q 1087 960 1018 1069 q 1200 781 1156 851 l 1196 478 l 1211 461 l 1399 461 q 1608 122 1515 300 q 1601 85 1601 108 q 1603 47 1603 60 q 1594 12 1603 24 q 1560 0 1586 0 l 629 10 q 540 140 564 63 q 517 324 517 218 l 504 336 l 299 340 q 175 446 236 393 q 76 571 108 508 l 81 1128 q 99 1148 88 1138 q 121 1157 110 1158 l 947 1144 m 918 1131 l 136 1140 l 113 1124 q 148 1031 119 1081 q 203 935 176 981 q 268 829 217 857 q 404 801 319 801 q 497 806 429 801 q 596 811 565 811 q 642 808 628 811 q 626 853 642 825 q 614 901 610 881 q 647 913 626 908 q 685 917 667 917 q 708 915 696 917 q 733 911 721 913 q 789 856 769 888 q 808 782 808 824 q 733 647 782 721 q 633 497 685 574 q 554 367 581 421 l 554 319 l 678 114 q 1128 115 904 114 q 1576 118 1353 117 q 1488 290 1544 203 q 1392 435 1431 376 l 1056 435 q 1063 401 1051 424 q 1069 363 1075 378 q 1043 349 1060 353 q 1011 344 1026 344 q 965 346 981 346 q 940 344 949 346 q 919 375 922 363 q 1064 583 989 474 q 1163 793 1139 693 l 968 1097 l 918 1131 z "},"3":{"ha":1310,"x_min":74,"x_max":1549,"o":"m 913 1129 l 1157 783 q 1153 761 1153 771 q 1172 722 1153 738 q 1224 694 1192 706 q 1354 508 1260 624 q 1499 308 1449 392 q 1549 128 1549 224 q 1546 81 1549 103 q 1535 32 1543 60 l 1513 10 q 1054 7 1371 10 q 707 4 738 4 q 549 88 626 14 q 444 188 471 161 l 444 350 q 390 360 424 357 q 324 363 356 363 q 278 362 300 363 q 235 361 256 361 q 135 438 174 407 q 79 517 97 469 l 74 1072 q 93 1130 81 1107 q 133 1157 106 1153 l 875 1153 l 913 1129 m 844 1135 l 150 1144 l 111 1125 q 104 1082 104 1106 q 159 951 104 1026 q 225 856 214 876 l 533 850 l 518 903 q 549 922 531 915 q 590 928 568 928 q 622 926 611 928 q 669 918 633 925 q 715 884 703 900 q 779 767 728 868 q 754 748 769 753 q 717 743 739 743 q 678 744 690 744 q 635 735 650 744 l 746 551 q 788 551 767 551 q 829 553 808 551 q 870 551 851 553 q 907 544 889 550 q 976 473 949 517 q 1031 365 1003 429 q 1006 341 1024 347 q 964 335 989 335 l 931 335 l 913 335 q 853 357 878 335 q 803 418 828 379 q 715 419 774 418 q 626 421 656 421 q 555 419 586 421 q 489 413 524 418 l 489 406 q 589 225 547 300 q 692 111 631 150 q 869 99 781 103 q 1072 96 958 96 q 1273 97 1172 96 q 1475 100 1374 99 l 1515 139 q 1525 179 1525 157 q 1521 211 1525 194 q 1503 263 1507 247 l 1258 614 q 1197 680 1229 657 q 1121 703 1165 703 q 1101 721 1101 713 q 1118 742 1101 728 q 1135 767 1135 757 q 1073 874 1101 832 q 892 1114 1044 915 l 844 1135 z "},"4":{"ha":1163,"x_min":206,"x_max":1379,"o":"m 1060 586 l 1168 586 q 1265 444 1179 563 q 1351 251 1351 326 q 1336 172 1351 211 q 1358 104 1336 149 q 1379 38 1379 60 q 1371 4 1379 21 l 989 0 l 838 117 l 319 125 q 256 187 306 144 q 211 275 206 229 q 206 385 206 325 q 218 581 206 507 q 272 851 231 654 q 322 1149 313 1049 l 336 1157 l 699 1149 l 1060 586 m 358 1135 l 342 1114 q 285 803 311 956 q 236 489 258 651 q 313 356 286 400 q 364 285 339 311 l 871 285 l 990 103 l 1329 100 q 1274 206 1322 133 q 1221 307 1226 278 l 1315 311 q 1234 456 1294 367 q 1163 565 1174 546 l 1118 565 q 1072 565 1094 565 q 1044 571 1053 569 q 931 744 997 636 q 802 950 864 851 q 676 1131 740 1049 l 358 1135 m 704 549 q 652 540 686 543 q 594 538 618 538 q 551 538 572 538 q 510 539 531 538 q 521 669 510 597 q 543 808 532 740 l 704 549 z "},"5":{"ha":1342,"x_min":78,"x_max":1625,"o":"m 993 1140 q 1078 1010 1003 1119 q 1154 831 1154 901 q 1150 793 1154 813 q 1223 750 1188 782 q 1281 679 1258 718 l 1621 114 q 1625 81 1625 97 q 1607 15 1625 43 l 1572 0 l 664 17 l 515 153 q 521 181 521 168 q 478 219 521 206 q 425 244 435 233 q 252 395 338 314 q 78 575 167 476 l 85 1149 l 142 1157 q 305 1157 224 1157 q 467 1158 386 1157 q 748 1155 635 1158 q 993 1140 861 1151 m 121 1135 l 121 1114 l 393 624 l 449 553 l 938 539 l 986 515 q 1020 460 992 499 q 1049 400 1049 421 q 1029 363 1049 381 l 572 363 l 563 349 l 693 122 l 1556 104 q 1575 113 1567 103 q 1583 135 1583 122 q 1579 147 1583 143 l 1225 726 l 1182 756 l 715 771 q 697 769 708 769 q 638 810 660 769 q 600 886 617 850 q 610 903 600 899 q 628 913 621 908 l 1107 913 q 1049 1020 1081 969 q 975 1126 1018 1071 q 672 1128 796 1126 q 372 1132 549 1129 q 121 1135 196 1135 z "},"6":{"ha":1339,"x_min":79,"x_max":1572,"o":"m 961 1135 l 1156 844 q 1157 826 1157 839 q 1156 802 1157 814 q 1156 778 1156 790 q 1164 736 1156 751 q 1199 714 1172 721 q 1247 692 1225 711 q 1285 644 1268 674 l 1561 190 q 1572 111 1572 153 q 1557 33 1572 64 l 1524 11 l 739 0 q 627 26 676 6 q 539 92 578 47 q 376 245 460 165 q 217 401 292 325 q 85 546 142 476 q 82 886 85 647 q 79 1126 79 1125 q 101 1145 83 1139 q 122 1157 118 1151 l 921 1157 l 961 1135 m 128 1135 q 107 1106 107 1135 q 111 1083 107 1092 l 383 611 q 485 428 425 558 q 599 223 544 297 q 749 118 653 149 l 1492 114 l 1536 125 q 1546 158 1546 140 q 1544 176 1546 167 q 1540 190 1542 186 l 1242 671 q 1174 714 1214 703 q 1086 725 1135 725 q 1024 721 1065 722 q 960 719 982 719 q 819 713 867 719 q 726 676 771 707 q 701 703 711 679 q 686 732 692 726 q 646 803 681 747 q 611 893 611 860 q 614 914 611 900 l 718 914 q 764 876 739 908 q 792 840 789 843 q 967 845 850 840 q 1119 850 1083 850 q 1029 1001 1074 925 q 913 1135 972 1092 l 128 1135 m 1051 401 q 1054 368 1057 381 q 1031 354 1046 358 q 1001 350 1017 350 q 976 350 989 350 q 950 351 963 350 l 933 351 q 877 417 897 376 q 857 503 857 457 q 899 507 871 503 q 942 511 926 511 q 982 503 967 511 l 1051 401 z "},"7":{"ha":1089,"x_min":51,"x_max":1067,"o":"m 1039 1147 q 1045 781 1039 985 q 1059 351 1051 578 q 1067 0 1067 125 l 688 4 l 675 17 q 675 95 675 56 q 676 176 675 135 q 674 301 676 257 q 664 403 672 344 l 207 414 q 132 485 164 451 q 51 572 100 518 l 51 1153 q 365 1151 185 1153 q 709 1149 544 1150 q 1039 1147 874 1149 m 111 1140 q 88 1131 93 1140 q 83 1103 83 1121 q 148 1007 104 1082 q 204 917 192 932 l 710 901 l 710 107 q 897 104 764 107 q 1039 101 1029 101 q 1036 429 1039 240 q 1031 807 1033 618 q 1028 1129 1028 996 l 111 1140 z "},"8":{"ha":1263,"x_min":76,"x_max":1532,"o":"m 921 1118 l 1149 785 q 1146 765 1146 771 q 1172 719 1146 738 q 1225 683 1199 700 q 1351 498 1258 615 q 1488 303 1443 381 q 1532 131 1532 225 q 1518 31 1532 81 q 1463 6 1493 11 q 1381 1 1432 1 l 675 6 q 551 81 603 39 q 406 210 500 124 q 283 321 313 297 q 174 404 254 344 q 83 528 94 464 q 80 738 83 610 q 76 889 76 867 q 78 1010 76 976 q 88 1106 81 1044 q 144 1147 111 1136 q 224 1158 176 1158 q 278 1157 251 1158 q 333 1154 306 1156 q 389 1160 367 1154 l 864 1156 l 921 1118 m 843 1132 l 168 1140 q 119 1117 138 1140 q 106 1061 101 1093 q 210 869 128 1028 q 411 663 293 710 l 399 649 q 455 458 399 558 q 564 267 511 357 q 631 153 603 192 q 710 101 658 114 l 1454 101 l 1496 142 q 1510 183 1510 160 q 1505 218 1510 201 q 1430 343 1500 235 q 1304 531 1360 451 q 1165 693 1249 610 q 1131 697 1160 694 q 1092 715 1101 700 q 1112 747 1107 722 q 1119 778 1117 772 l 899 1100 l 843 1132 m 732 851 q 757 807 743 831 q 771 763 771 783 q 738 751 758 756 q 700 747 718 747 q 615 760 665 747 q 561 828 582 794 q 540 899 540 861 q 542 915 540 910 q 603 924 571 924 q 681 907 647 924 q 732 851 714 890 m 964 479 q 992 428 968 467 q 1017 367 1017 390 q 1015 350 1017 356 q 976 343 993 344 q 936 342 960 342 q 860 350 901 342 q 801 431 828 381 q 760 518 774 490 q 781 544 760 540 q 821 551 801 547 q 908 536 872 551 q 964 479 944 521 z "},"9":{"ha":1317,"x_min":75,"x_max":1585,"o":"m 669 1151 q 690 1151 679 1151 q 736 1154 696 1151 q 806 1157 776 1157 q 941 1138 900 1157 q 997 1086 982 1119 q 1182 803 1088 946 q 1402 465 1276 660 q 1578 190 1528 271 q 1585 138 1585 169 q 1581 83 1585 111 q 1572 31 1576 56 q 1530 5 1557 13 q 1472 -3 1503 -3 q 1430 -1 1450 -3 q 1390 1 1410 0 l 660 13 q 552 85 613 24 q 479 157 492 147 q 472 179 475 165 q 469 215 469 193 q 469 241 469 228 q 460 267 468 254 q 424 263 440 263 q 265 354 356 263 q 163 454 175 446 l 75 558 l 75 1115 q 91 1147 85 1135 q 114 1154 97 1158 l 669 1151 m 128 1138 q 107 1100 99 1129 l 335 689 q 416 579 390 604 q 479 546 442 554 l 979 532 q 1026 455 990 511 q 1063 354 1063 399 q 1035 344 1049 346 q 1010 342 1022 342 q 983 342 996 342 q 957 343 969 342 l 940 343 q 902 373 918 354 q 875 417 886 392 l 501 419 q 510 382 500 400 q 531 347 519 364 q 602 217 564 285 q 685 117 640 149 l 1519 108 q 1549 123 1539 108 q 1560 158 1560 138 q 1556 182 1560 171 l 1085 921 q 1006 1042 1046 981 q 901 1133 965 1103 l 128 1138 m 789 829 q 812 785 797 811 q 832 743 826 760 q 806 736 819 738 q 772 735 792 735 q 723 738 740 735 q 697 740 706 740 q 640 815 663 778 q 608 894 618 851 q 676 908 643 908 q 749 890 718 908 q 789 829 781 871 z "}," ":{"ha":865,"x_min":0,"x_max":0,"o":""}," ":{"ha":865,"x_min":0,"x_max":0,"o":""},"!":{"ha":817,"x_min":107,"x_max":1107,"o":"m 892 489 q 882 469 885 482 q 879 444 879 457 q 879 389 879 417 q 897 381 886 383 q 915 378 908 378 q 947 379 935 379 l 1107 113 l 1101 44 q 1004 36 1047 38 q 892 35 961 35 l 871 35 l 850 35 l 833 35 q 781 35 807 35 q 729 36 756 35 l 713 36 q 635 107 669 78 q 560 163 600 136 q 561 206 561 190 q 558 240 561 224 q 547 267 556 256 l 454 263 l 122 553 q 110 776 114 650 q 107 1038 107 903 l 107 1103 q 206 1111 142 1108 q 321 1114 269 1114 q 410 1113 365 1114 q 500 1113 456 1113 l 892 489 m 158 1093 q 357 758 264 911 q 536 472 450 604 l 850 469 l 871 485 q 729 718 808 588 q 615 903 650 849 q 486 1100 581 958 q 292 1097 410 1100 q 158 1093 175 1093 m 926 368 q 728 366 843 368 q 603 364 614 364 q 672 229 619 311 q 729 136 724 147 l 1049 133 l 1065 142 l 926 368 z "},"$":{"ha":997,"x_min":51,"x_max":1208,"o":"m 494 1067 q 517 1031 496 1049 l 708 1031 l 838 833 l 840 753 q 904 714 874 740 q 946 654 935 688 l 1204 239 q 1208 203 1208 222 q 1189 153 1208 171 l 1019 146 q 1034 105 1019 132 q 1049 64 1049 78 q 1043 40 1049 51 l 821 44 l 718 149 l 501 153 q 431 215 488 169 q 375 308 375 261 q 199 424 281 338 q 65 565 117 510 q 57 640 60 594 q 54 732 54 686 q 54 797 54 764 q 56 861 54 829 l 65 869 l 56 874 q 60 901 60 886 q 56 940 60 914 q 51 978 51 967 q 86 1026 51 1015 q 126 1026 106 1026 q 168 1025 146 1025 q 222 1027 203 1025 q 263 1038 240 1029 q 259 1071 265 1049 q 253 1099 253 1093 q 272 1119 253 1115 q 290 1115 278 1117 q 317 1113 301 1113 q 367 1117 333 1113 q 417 1121 400 1121 q 465 1110 446 1121 q 494 1067 483 1099 m 313 1107 q 285 1093 285 1107 q 301 1058 285 1085 q 313 1018 317 1031 l 86 1017 q 74 997 75 1011 q 72 978 72 983 q 150 847 96 939 q 246 688 204 754 q 328 565 288 621 l 697 558 l 732 531 q 752 490 736 517 q 768 449 768 463 q 764 432 768 440 q 691 426 736 428 q 606 425 646 425 q 512 424 557 425 q 415 415 467 424 q 460 327 435 371 q 521 239 486 283 l 732 233 q 793 162 764 218 q 833 93 822 106 l 1017 88 q 985 159 1017 110 q 954 229 954 208 l 1113 229 q 1150 233 1119 232 q 1176 263 1181 235 q 1078 423 1140 318 q 969 599 1017 528 q 864 728 921 669 l 501 732 q 456 771 471 740 q 433 829 440 810 q 516 839 467 836 q 610 842 565 842 l 708 842 l 746 842 q 782 842 764 842 q 804 844 797 844 q 763 927 786 886 q 708 1017 739 968 l 515 1018 l 494 1038 q 472 1093 494 1079 q 411 1107 450 1107 q 377 1106 400 1107 q 343 1104 354 1104 q 313 1107 332 1104 z "},"&":{"ha":1244,"x_min":144,"x_max":1467,"o":"m 853 1040 q 977 911 907 1013 q 1058 797 1047 810 q 1063 739 1063 786 q 1099 696 1063 692 l 1258 696 l 1374 522 l 1364 375 q 1440 250 1414 301 q 1467 139 1467 199 q 1453 60 1467 100 q 1431 32 1444 43 q 1400 21 1417 21 l 711 10 q 556 106 640 24 q 449 203 472 188 q 414 270 426 219 q 375 321 401 321 q 342 311 361 321 q 227 383 285 343 q 154 494 169 424 q 149 774 154 599 q 144 1001 144 949 q 172 1034 153 1025 q 219 1043 192 1043 q 256 1042 238 1043 q 292 1039 274 1040 q 331 1044 314 1039 l 853 1040 m 282 1033 q 251 1028 271 1028 q 206 1031 221 1031 q 174 1024 185 1031 q 164 994 164 1017 l 346 675 q 401 617 367 639 q 475 596 435 596 q 490 575 490 588 q 476 540 490 569 q 463 499 463 511 q 468 474 463 485 q 565 295 494 435 q 726 100 635 156 q 1126 103 883 100 q 1400 107 1369 107 q 1434 142 1421 119 q 1447 190 1447 165 q 1356 367 1422 279 q 1246 513 1290 454 l 1246 532 l 1336 538 q 1305 606 1331 567 q 1256 679 1279 644 l 825 679 l 803 665 q 907 505 821 608 q 1006 331 993 401 q 978 319 993 322 q 944 315 964 315 q 917 315 931 315 q 889 317 903 315 q 864 315 872 317 q 806 397 828 360 q 769 479 785 435 q 779 500 768 494 q 822 513 800 506 q 783 593 808 551 q 731 671 758 635 q 681 678 722 675 q 626 703 639 682 q 594 751 621 717 q 568 804 568 786 q 578 832 568 818 q 632 840 606 840 q 735 797 696 840 q 813 793 772 793 q 922 797 847 793 q 1035 801 997 801 q 954 928 994 864 q 843 1029 901 1000 l 282 1033 z "},"'":{"ha":614,"x_min":114,"x_max":617,"o":"m 475 1068 q 561 954 518 1011 q 607 824 607 885 q 612 686 607 774 q 617 574 617 599 q 613 485 617 526 q 596 404 608 443 q 547 333 588 394 q 461 271 507 271 q 425 278 440 271 q 400 290 410 285 q 394 319 394 300 q 396 358 396 346 q 391 392 396 381 q 368 403 386 403 q 344 398 360 403 q 311 393 329 393 q 204 451 261 393 q 128 522 147 510 l 114 1049 l 124 1065 q 299 1067 188 1065 q 475 1068 410 1068 m 340 1058 q 144 1044 242 1051 q 214 929 176 985 q 290 832 251 874 l 458 842 q 461 810 461 822 q 451 740 461 782 q 428 647 440 699 l 433 640 q 463 636 450 636 q 526 702 503 636 q 562 782 549 768 q 584 815 575 796 q 593 851 593 833 q 535 966 593 896 q 468 1058 478 1036 l 340 1058 z "},",":{"ha":632,"x_min":351,"x_max":801,"o":"m 686 321 q 740 217 708 293 q 793 114 772 142 q 801 64 801 86 q 742 -84 801 6 q 675 -190 682 -174 q 621 -204 657 -204 q 594 -203 608 -204 q 568 -200 581 -201 q 565 -168 565 -181 q 581 -68 565 -135 q 599 4 597 -1 q 569 15 586 13 q 533 18 551 18 l 494 18 q 458 21 469 18 l 351 135 l 363 324 l 686 321 m 400 306 l 392 296 l 481 114 q 642 94 561 104 q 608 -35 621 31 q 596 -161 596 -101 l 647 -162 q 753 40 700 -61 q 772 103 772 71 q 726 211 772 135 q 676 301 681 288 l 400 306 z "},"-":{"ha":625,"x_min":81,"x_max":717,"o":"m 714 522 q 715 480 714 508 q 717 438 717 451 q 715 399 717 417 q 708 364 714 382 q 414 367 619 364 q 196 369 208 369 l 83 497 q 82 560 83 514 q 81 631 81 606 q 82 681 81 657 q 88 729 83 706 q 263 735 146 729 q 435 740 379 740 q 565 733 513 740 l 714 522 m 118 714 q 169 610 143 654 q 236 522 196 565 l 675 525 l 683 532 q 628 615 658 574 q 560 714 599 657 l 118 714 z "},".":{"ha":567,"x_min":353,"x_max":799,"o":"m 678 340 q 744 228 689 315 q 799 78 799 142 q 789 21 799 49 l 461 29 l 353 135 l 357 331 l 368 340 l 678 340 m 663 329 l 383 315 l 486 119 q 546 113 517 114 q 617 111 575 111 q 696 113 643 111 q 774 114 749 114 q 721 235 746 185 q 663 329 696 286 z "},":":{"ha":782,"x_min":192,"x_max":1061,"o":"m 694 724 l 704 369 q 747 358 725 361 q 794 356 768 356 q 850 357 822 356 q 906 360 878 358 q 991 226 940 318 q 1061 104 1042 133 l 1058 21 l 675 17 q 583 87 615 58 q 540 158 551 115 l 538 315 l 336 315 l 211 428 q 196 647 200 526 q 192 883 192 768 l 192 951 l 551 946 l 694 724 m 222 935 l 217 926 q 288 803 258 854 q 349 714 317 753 l 664 718 q 622 810 649 765 q 540 935 594 854 l 222 935 m 565 324 q 619 216 589 272 q 683 107 649 160 l 1024 107 q 963 236 1008 157 q 906 336 917 315 q 823 336 864 336 q 742 338 782 336 q 647 335 690 338 q 565 324 603 332 z "},";":{"ha":775,"x_min":154,"x_max":989,"o":"m 517 954 q 594 846 561 901 q 665 714 628 790 l 679 385 l 694 369 l 863 369 q 933 255 876 340 q 989 101 989 169 q 988 71 989 82 q 979 38 986 60 q 915 -67 961 18 q 810 -151 869 -151 q 763 -142 788 -151 q 761 -118 761 -133 q 775 -31 761 -93 q 789 56 789 31 l 650 65 q 560 147 576 129 q 540 181 544 164 q 536 213 536 199 q 539 247 536 222 q 542 285 542 272 q 534 321 542 308 q 501 333 526 333 l 478 331 q 456 332 467 332 q 439 332 444 332 q 389 329 422 332 q 339 326 356 326 q 296 331 319 326 l 183 433 q 162 712 169 592 q 154 954 154 832 l 517 954 m 763 349 q 742 346 757 347 q 703 344 726 344 l 668 344 q 612 342 628 344 q 576 329 596 340 l 669 154 q 725 150 694 150 l 768 150 q 829 143 808 150 q 806 37 818 106 q 781 -112 794 -32 l 842 -117 l 950 100 q 958 143 958 124 q 914 256 958 185 q 863 344 869 326 l 763 349 m 186 935 q 250 819 215 875 q 324 718 285 763 q 635 733 478 718 q 510 942 572 838 l 346 942 q 267 940 307 942 q 186 935 226 939 z "},"?":{"ha":1032,"x_min":93,"x_max":1182,"o":"m 838 1083 q 986 876 911 979 q 1065 642 1065 753 q 1069 563 1065 615 q 1072 497 1072 511 q 1066 422 1072 451 q 1040 364 1060 392 q 1116 237 1050 340 q 1182 65 1182 133 l 1165 47 l 871 47 q 799 108 858 63 q 740 204 740 153 q 746 239 740 222 q 737 242 743 240 q 717 243 731 243 q 697 247 699 243 l 697 239 q 567 317 642 246 q 482 396 493 389 q 426 401 457 400 q 357 403 396 403 q 276 401 331 403 q 196 400 222 400 q 134 448 158 428 q 103 496 110 468 l 93 1003 q 127 1080 99 1047 q 199 1113 156 1113 l 793 1113 l 838 1083 m 272 1103 q 190 1096 231 1099 q 125 1051 143 1086 q 121 1013 121 1031 q 156 908 121 964 q 219 815 188 861 l 482 815 l 503 829 q 481 863 489 849 q 478 890 472 876 l 600 894 q 665 844 636 886 q 711 774 688 808 q 694 738 710 747 q 653 729 679 729 q 624 731 644 729 q 592 732 603 732 q 550 724 565 732 q 603 607 557 681 q 656 521 649 533 q 690 454 664 472 q 758 436 715 436 q 836 444 783 436 q 914 453 889 453 q 939 451 931 453 q 867 638 903 544 q 964 647 925 638 q 1029 688 1003 656 q 1033 722 1033 707 q 1012 805 1033 764 q 967 874 990 846 q 889 986 944 901 q 774 1100 833 1071 l 272 1103 m 771 356 q 822 246 786 304 q 893 142 871 175 l 1146 136 q 1004 364 1079 254 q 889 360 967 364 q 771 356 811 356 z "},"A":{"ha":1115,"x_min":76,"x_max":1601,"o":"m 529 1149 q 887 800 643 1035 q 1297 399 1131 565 q 1600 81 1463 233 q 1601 36 1601 51 q 1583 8 1601 11 l 1082 14 q 1050 46 1071 38 q 997 54 1029 54 q 963 53 986 54 q 928 51 939 51 l 915 8 q 754 6 868 8 q 632 3 640 3 l 615 3 l 599 3 q 489 8 538 3 q 92 533 290 271 l 76 1142 q 249 1149 131 1142 q 403 1157 367 1157 q 529 1149 464 1157 m 288 1144 q 253 1141 276 1142 q 215 1140 229 1140 q 155 1140 185 1140 q 99 1129 125 1139 q 228 794 163 960 q 360 462 293 629 q 489 131 426 294 l 517 99 l 876 99 q 867 133 878 113 q 856 160 856 153 q 865 181 856 171 q 906 181 885 181 q 947 182 926 181 q 1050 167 1011 182 q 1107 103 1089 151 l 1547 103 q 1233 438 1400 268 q 904 765 1067 608 q 511 1139 742 922 l 288 1144 m 876 360 l 768 360 q 690 506 714 458 q 642 624 665 554 q 772 485 724 539 q 876 360 821 432 z "},"B":{"ha":1344,"x_min":96,"x_max":1632,"o":"m 976 1128 l 1226 783 l 1221 726 q 1299 683 1261 714 q 1364 610 1336 651 q 1505 416 1378 582 q 1632 140 1632 250 q 1614 39 1632 92 l 1582 15 q 1325 -2 1467 3 q 1018 -7 1183 -7 l 985 -7 l 956 -7 l 931 -7 l 910 -7 l 889 -7 l 872 -7 q 822 -6 847 -7 q 772 -6 797 -6 l 760 -6 q 569 136 651 69 q 329 334 486 203 q 119 507 172 465 q 108 842 119 617 q 96 1144 96 1067 q 164 1151 133 1150 q 207 1151 194 1151 l 938 1151 l 976 1128 m 857 1149 q 610 1133 747 1138 q 332 1128 474 1128 l 114 1128 l 114 1107 q 308 791 190 976 q 549 414 426 606 q 742 103 671 222 q 1145 104 943 103 q 1550 107 1347 106 l 1594 150 q 1604 194 1604 171 q 1599 235 1604 218 q 1578 281 1593 251 l 1310 640 q 1238 694 1286 678 q 1147 717 1176 710 q 1190 744 1175 731 q 1204 783 1204 758 q 1109 922 1164 847 q 994 1072 1054 996 q 936 1128 974 1107 q 857 1149 899 1149 m 764 890 q 809 831 786 861 q 836 767 832 801 q 803 756 821 758 q 761 753 785 753 q 722 754 749 753 q 683 756 696 756 l 581 906 q 633 913 610 910 q 675 915 657 915 q 726 910 707 915 q 764 890 744 906 m 1097 372 l 1097 356 q 1040 348 1072 353 q 992 343 1007 343 q 942 350 963 343 q 885 426 918 375 q 815 538 853 476 q 866 547 835 542 q 915 551 897 551 q 960 547 942 551 q 999 529 979 542 q 1059 452 1035 489 q 1097 372 1083 415 z "},"C":{"ha":1178,"x_min":76,"x_max":1604,"o":"m 1063 900 l 1072 544 q 1033 533 1054 536 q 986 531 1011 531 q 933 532 960 531 q 882 535 907 533 q 808 525 842 535 q 855 428 836 461 q 908 371 874 396 q 1027 364 969 365 q 1163 363 1085 363 l 1196 363 l 1225 363 l 1250 363 l 1271 363 l 1290 363 l 1307 363 q 1357 363 1332 363 q 1407 364 1382 363 l 1419 364 l 1600 94 q 1597 78 1597 83 q 1601 49 1597 67 q 1604 31 1604 32 q 1586 3 1604 13 q 1458 0 1547 3 q 1363 -3 1368 -3 q 1293 -3 1328 -3 q 1249 3 1263 1 l 667 7 l 594 57 l 115 536 l 93 589 q 89 644 90 613 q 88 706 88 675 q 89 794 88 735 q 90 883 90 854 q 88 976 90 949 q 78 1051 86 1003 q 78 1068 79 1056 q 76 1094 76 1081 q 85 1121 76 1113 l 128 1142 q 389 1144 265 1142 q 663 1151 513 1147 q 886 1156 814 1156 l 1063 900 m 133 1140 q 94 1076 94 1122 q 142 980 94 1058 q 281 751 189 901 q 449 468 372 600 q 606 193 526 336 l 671 117 q 992 115 867 117 q 1293 110 1117 113 q 1568 107 1469 107 q 1488 247 1524 190 q 1406 350 1451 303 l 921 350 l 882 369 l 557 892 l 583 919 l 1018 926 q 939 1067 963 1029 q 869 1142 915 1104 l 133 1140 z "},"D":{"ha":1324,"x_min":68,"x_max":1625,"o":"m 389 1156 l 926 1156 l 979 1128 q 1185 840 1079 993 q 1400 522 1292 686 q 1611 203 1508 358 q 1622 144 1618 167 q 1625 94 1625 122 q 1621 49 1625 72 l 1572 7 l 689 0 q 464 192 614 67 q 240 382 314 317 q 79 535 165 447 l 68 1133 q 187 1149 74 1142 q 389 1156 300 1156 m 392 1150 q 198 1144 308 1147 q 88 1128 88 1142 l 671 132 l 706 100 l 1563 106 q 1596 126 1582 113 q 1607 158 1610 140 l 1589 215 l 983 1104 q 933 1140 961 1126 q 876 1154 904 1154 q 851 1150 864 1154 l 392 1150 m 792 847 l 1040 447 q 1048 417 1043 435 q 1053 392 1053 400 q 1044 364 1053 376 q 1017 357 1031 358 q 986 356 1003 356 q 926 364 958 356 q 835 499 878 432 q 708 703 793 565 q 579 908 622 840 q 663 922 621 922 q 740 904 706 922 q 792 847 775 886 z "},"E":{"ha":1383,"x_min":111,"x_max":1746,"o":"m 647 1156 q 892 1158 740 1156 q 1046 1160 1044 1160 q 1139 1023 1058 1131 q 1219 840 1219 915 q 1210 775 1219 808 q 1308 760 1250 760 q 1399 626 1317 740 q 1481 433 1481 513 q 1472 371 1481 404 q 1497 360 1481 363 q 1515 357 1513 357 q 1550 358 1539 358 q 1568 357 1563 358 l 1740 96 q 1743 68 1740 86 q 1746 40 1746 50 q 1741 19 1746 28 q 1724 3 1736 10 l 740 0 l 122 522 l 111 557 l 111 1153 l 647 1156 m 647 1147 l 144 1142 l 160 1099 q 345 787 238 974 q 556 420 453 600 q 744 100 660 240 q 1226 99 985 100 q 1710 96 1468 97 q 1719 113 1719 96 q 1679 181 1719 122 q 1561 350 1639 239 l 1015 350 q 958 438 978 406 q 926 510 939 469 l 1440 513 q 1447 529 1447 519 q 1431 561 1447 540 q 1413 593 1414 582 l 1301 753 l 771 760 q 728 831 750 789 q 688 911 707 872 l 1175 921 l 1183 933 l 1051 1142 l 1024 1156 l 647 1147 z "},"F":{"ha":1308,"x_min":68,"x_max":1432,"o":"m 417 1150 q 730 1153 521 1150 q 960 1157 939 1157 q 1063 1019 974 1128 q 1153 835 1153 910 q 1144 779 1153 808 q 1163 765 1151 769 q 1186 761 1175 761 q 1224 763 1213 763 q 1239 761 1235 763 q 1346 609 1260 722 q 1432 400 1432 496 q 1431 368 1432 379 q 1422 333 1429 357 q 1406 308 1428 306 l 1017 304 q 1011 285 1011 297 q 1017 257 1011 271 q 1034 225 1024 243 q 1085 150 1044 207 q 1125 44 1125 93 q 1121 14 1125 31 q 1037 3 1081 6 q 940 0 993 0 q 876 0 908 0 q 813 1 844 0 q 719 -3 764 1 l 675 22 q 487 184 597 92 q 273 364 376 276 q 81 533 169 451 q 74 896 81 664 q 68 1144 68 1128 l 417 1150 m 418 1142 q 205 1140 311 1142 q 92 1128 99 1138 q 260 847 211 928 q 458 524 308 767 q 714 111 608 281 l 742 89 q 820 88 781 89 q 900 88 860 88 q 999 90 954 88 q 1088 103 1044 93 q 1012 236 1064 149 q 924 389 960 324 q 865 510 888 454 l 1378 522 q 1318 641 1357 583 q 1226 754 1279 699 l 722 744 q 672 815 694 761 q 625 888 649 868 l 625 906 l 1093 918 q 1100 936 1100 928 q 1078 981 1100 950 q 1056 1017 1057 1011 l 954 1150 l 418 1142 z "},"G":{"ha":1338,"x_min":79,"x_max":1658,"o":"m 1049 1051 q 1141 921 1067 1015 q 1215 746 1215 826 q 1214 725 1215 732 l 1288 718 l 1657 168 q 1656 140 1656 160 q 1657 112 1656 132 q 1658 81 1658 92 q 1649 38 1658 53 q 1607 17 1639 22 l 721 0 l 656 32 l 150 461 l 111 522 l 79 1103 q 122 1147 86 1138 q 408 1149 297 1147 q 676 1154 519 1151 q 921 1157 832 1157 q 997 1115 965 1153 q 1049 1051 1028 1076 m 140 1140 q 107 1122 119 1133 q 92 1090 94 1110 q 264 808 167 964 q 466 486 361 653 q 668 165 571 319 l 732 100 q 1006 103 843 100 q 1332 108 1169 106 q 1603 111 1494 111 l 1621 99 q 1635 144 1629 122 q 1640 182 1642 167 q 1500 388 1586 260 q 1374 572 1414 515 q 1275 704 1333 629 l 893 699 l 864 686 l 1000 454 q 1019 450 1008 450 q 1044 451 1036 451 q 1073 441 1068 451 q 1090 412 1078 431 q 1103 383 1103 393 q 1088 360 1103 369 q 1042 350 1058 353 q 1007 347 1026 347 q 943 367 971 347 l 638 825 l 606 892 q 626 907 611 900 q 663 914 640 914 q 685 913 672 914 q 717 911 699 913 q 733 913 728 911 l 828 825 l 1156 832 l 1175 847 q 953 1140 1064 993 l 140 1140 z "},"H":{"ha":1315,"x_min":82,"x_max":1672,"o":"m 1667 107 q 1672 80 1671 86 q 1672 57 1672 74 q 1651 10 1672 21 l 1283 10 q 1147 92 1215 50 q 1138 56 1138 81 l 1138 39 q 1135 14 1138 21 q 1121 4 1133 7 l 747 0 q 502 212 674 65 q 268 413 331 358 q 93 578 206 468 q 88 858 93 669 q 82 1142 82 1047 l 428 1147 q 492 1063 453 1125 q 553 978 531 1000 q 563 1029 563 996 q 561 1068 563 1040 q 560 1110 560 1096 q 565 1151 560 1135 q 792 1153 657 1151 q 931 1156 928 1156 l 1667 107 m 921 1140 q 853 1140 888 1140 q 785 1142 819 1140 q 678 1140 715 1142 q 592 1129 640 1138 q 681 986 617 1078 q 765 853 744 894 q 737 842 754 844 q 701 839 719 839 l 656 839 l 629 839 q 525 985 575 913 q 428 1135 475 1058 q 358 1135 393 1135 q 286 1136 322 1135 q 196 1133 238 1136 q 115 1121 154 1131 q 341 749 228 935 q 522 453 454 563 q 721 144 590 344 l 760 103 l 1093 107 q 990 273 1063 163 q 885 435 918 383 q 822 546 851 488 q 852 558 836 554 q 890 561 868 561 q 925 560 901 561 q 960 558 949 558 q 1076 405 1008 496 q 1190 251 1144 314 q 1289 114 1235 189 l 1625 114 l 1631 122 l 921 1140 z "},"I":{"ha":849,"x_min":61,"x_max":1179,"o":"m 472 1157 q 737 763 546 1047 q 968 419 928 479 q 1179 93 1008 358 l 1179 10 q 1030 -2 1110 1 q 863 -6 950 -6 l 753 -6 q 540 162 644 76 q 312 354 436 247 q 75 560 188 461 q 68 867 75 654 q 61 1157 61 1079 l 472 1157 m 110 1144 l 100 1128 l 744 110 q 815 99 779 101 q 894 96 851 96 q 1018 100 936 96 q 1140 104 1100 104 q 931 438 1022 296 q 708 776 839 581 q 461 1144 576 971 l 110 1144 z "},"J":{"ha":1189,"x_min":225,"x_max":1472,"o":"m 678 1156 q 735 1156 706 1156 q 797 1157 765 1156 l 814 1157 q 1012 862 897 1038 q 1261 475 1126 686 q 1467 158 1396 264 q 1469 121 1467 147 q 1472 81 1472 94 q 1466 43 1472 60 q 1444 17 1460 26 q 916 13 1239 17 q 544 10 593 10 q 381 122 474 44 q 239 242 289 199 q 228 326 231 285 q 225 411 225 367 q 227 483 225 444 q 235 579 229 522 l 421 583 l 433 596 q 432 753 433 646 q 431 917 431 861 q 432 1045 431 990 q 439 1157 433 1100 l 678 1156 m 675 1149 l 449 1149 l 897 397 q 873 372 890 379 q 835 365 856 365 q 799 367 817 365 q 765 369 782 368 q 717 424 733 403 q 621 564 700 446 l 576 579 q 393 577 450 579 q 257 561 336 575 q 535 110 374 350 l 571 93 l 1426 100 q 1460 143 1460 118 q 1267 454 1357 313 q 1005 858 1176 596 q 822 1138 833 1121 q 777 1149 808 1144 q 714 1153 746 1153 q 675 1149 688 1153 z "},"K":{"ha":1344,"x_min":88,"x_max":1749,"o":"m 524 1108 q 633 929 601 979 q 708 817 664 879 q 722 940 718 871 q 725 1026 725 1008 q 724 1078 725 1051 q 724 1132 724 1104 l 724 1149 q 889 1150 806 1149 q 1057 1153 972 1151 q 1081 917 1072 1072 q 1100 582 1089 763 q 1122 572 1108 575 q 1150 569 1136 569 l 1174 569 q 1210 565 1199 569 q 1388 405 1303 485 q 1556 248 1472 325 q 1746 78 1640 171 q 1749 33 1749 49 q 1741 6 1749 13 q 1718 0 1733 0 l 1296 10 l 1158 100 l 1154 10 l 724 4 q 518 185 631 81 q 295 392 406 289 q 93 578 185 496 q 90 906 93 676 q 88 1149 88 1136 l 475 1157 l 524 1108 m 126 1142 l 114 1126 q 348 733 211 968 q 558 372 485 497 q 706 131 632 247 l 735 100 l 1119 104 l 1119 118 q 858 560 989 339 q 1004 411 932 490 q 1152 248 1076 332 q 1289 100 1228 164 l 1669 92 l 1697 104 l 1210 553 q 1181 558 1199 558 q 1153 557 1168 558 q 1136 556 1138 556 q 1088 582 1101 556 l 1061 1104 l 1050 1142 q 967 1142 1008 1142 q 883 1143 925 1142 q 804 1142 838 1143 q 735 1135 771 1140 q 731 1079 732 1111 q 729 1017 729 1047 q 732 889 729 978 q 735 793 735 800 l 718 774 q 479 1142 599 957 l 126 1142 z "},"L":{"ha":1326,"x_min":79,"x_max":1664,"o":"m 351 1149 q 267 1150 328 1149 q 203 1151 206 1151 q 138 1150 164 1151 q 93 1143 113 1149 l 115 1085 q 303 772 183 976 q 528 394 422 568 q 724 92 635 219 l 1622 97 l 1633 107 l 1336 565 q 1169 575 1263 575 q 1006 560 1076 575 q 1108 371 1057 465 q 1072 364 1090 365 q 1028 363 1053 363 q 949 367 985 363 q 791 616 878 472 q 622 897 704 760 q 460 1150 539 1035 l 351 1149 m 315 1157 l 390 1157 l 475 1150 q 633 892 497 1114 q 812 599 768 669 q 954 383 856 529 q 971 378 964 381 q 979 440 979 411 q 976 490 979 457 q 974 542 974 524 q 975 575 974 564 q 1058 582 1018 581 q 1153 583 1099 583 q 1242 583 1197 583 q 1331 582 1286 582 q 1431 440 1375 522 q 1551 260 1486 358 q 1656 101 1615 161 q 1658 60 1651 89 q 1664 26 1664 32 q 1636 0 1664 0 q 1622 1 1628 0 l 692 1 q 363 278 518 143 q 79 538 207 413 l 79 1149 q 189 1156 131 1154 q 315 1157 247 1157 z "},"M":{"ha":1646,"x_min":83,"x_max":1990,"o":"m 107 1153 l 469 1153 q 871 792 669 972 q 878 878 876 838 q 881 985 881 918 l 881 1006 l 881 1024 l 881 1040 q 880 1090 881 1065 q 879 1140 879 1115 l 879 1153 l 1249 1157 l 1990 81 l 1986 4 l 1551 0 q 1492 62 1540 8 q 1419 132 1443 115 q 1418 111 1418 126 q 1419 81 1418 96 q 1422 50 1421 65 q 1414 13 1422 26 q 1385 0 1406 0 q 1352 0 1368 0 q 1319 -1 1336 0 q 1222 11 1263 -1 q 1150 64 1181 24 q 1143 65 1144 67 q 1133 49 1133 57 q 1136 33 1133 44 q 1139 17 1139 22 q 1135 4 1139 11 l 704 0 q 597 83 671 18 q 514 154 522 149 l 115 503 q 91 803 99 642 q 83 1142 83 965 q 107 1153 89 1153 m 121 1147 l 96 1142 l 115 1096 l 704 97 q 848 94 750 97 q 947 92 946 92 q 1033 94 1008 92 q 1104 103 1057 96 q 1033 231 1083 144 q 972 335 982 317 q 1109 207 978 332 q 1304 82 1240 82 q 1397 110 1347 82 l 1364 365 q 1469 220 1403 322 q 1551 97 1536 118 q 1683 89 1614 89 q 1819 93 1728 89 q 1957 97 1911 97 l 1951 119 q 1760 393 1850 263 q 1522 744 1671 524 q 1249 1149 1374 965 l 914 1149 q 908 1099 908 1126 q 919 1008 908 1072 q 931 922 931 943 q 958 776 954 803 q 968 682 963 749 q 811 822 899 740 q 617 1005 724 903 q 469 1144 510 1107 l 446 1147 l 121 1147 z "},"N":{"ha":1436,"x_min":85,"x_max":1781,"o":"m 1775 106 l 1781 15 l 1369 4 q 1287 56 1342 15 q 1210 103 1232 96 l 1204 10 q 1108 3 1156 4 q 999 1 1061 1 q 881 3 958 1 q 767 4 803 4 l 114 549 q 99 843 114 639 q 85 1135 85 1047 l 108 1147 l 468 1151 q 639 1036 553 1093 l 642 1147 q 717 1153 676 1151 q 811 1154 758 1154 q 931 1153 851 1154 q 1044 1151 1010 1151 l 1775 106 m 678 1139 q 856 842 767 990 q 668 978 764 906 q 464 1139 572 1051 q 377 1139 421 1139 q 290 1140 333 1139 q 197 1138 222 1140 q 124 1129 171 1136 q 354 763 214 982 q 581 409 494 543 q 779 106 668 275 q 908 100 835 100 q 1052 103 951 100 q 1160 106 1153 106 l 933 447 q 929 465 929 454 q 939 481 929 479 l 1354 106 q 1580 108 1421 106 q 1746 111 1739 111 l 1746 125 q 1499 481 1615 315 q 1263 816 1383 647 q 1022 1147 1143 985 q 808 1143 932 1147 q 678 1139 683 1139 z "},"O":{"ha":1393,"x_min":79,"x_max":1649,"o":"m 878 1157 q 918 1156 904 1157 q 949 1147 932 1154 l 1044 1033 l 1635 190 q 1642 138 1635 174 q 1649 82 1649 101 q 1632 26 1649 49 l 1579 4 l 768 0 l 664 42 l 135 513 l 113 547 l 79 1104 q 95 1128 79 1119 q 129 1138 111 1138 q 378 1142 253 1138 q 651 1151 504 1146 q 878 1157 797 1157 m 881 1142 l 122 1131 q 99 1090 99 1119 q 107 1065 99 1076 l 708 131 l 753 101 l 1600 110 q 1629 156 1629 121 q 1613 201 1629 181 l 1004 1065 q 951 1119 978 1092 q 881 1142 918 1146 m 801 846 q 901 692 844 774 q 1015 527 958 610 q 1108 369 1071 444 q 1050 350 1090 350 q 1013 353 1038 350 q 975 356 988 356 q 858 524 917 435 q 735 713 800 613 q 628 872 669 814 q 631 899 628 889 q 647 907 633 908 q 750 898 715 907 q 801 846 785 889 z "},"P":{"ha":1335,"x_min":69,"x_max":1461,"o":"m 531 1144 q 636 1153 572 1149 q 764 1157 700 1157 q 883 1151 835 1157 q 961 1128 932 1144 l 1440 433 q 1455 358 1449 399 q 1461 288 1461 318 q 1448 198 1461 235 q 1401 144 1435 161 q 1131 128 1265 136 q 1146 99 1142 117 q 1150 64 1150 82 q 1149 39 1150 51 q 1149 14 1149 26 q 1027 6 1104 8 q 893 3 950 3 l 739 3 q 535 183 656 81 q 301 383 415 285 q 99 569 188 481 l 69 1131 l 531 1144 m 536 1138 l 79 1124 l 92 1086 l 744 100 q 839 99 792 100 q 935 99 886 99 q 1031 101 986 99 q 1114 113 1075 104 q 1001 301 1057 207 l 1013 314 q 1048 319 1024 317 q 1100 321 1072 321 q 1188 318 1126 321 q 1251 315 1250 315 q 1359 326 1315 315 q 1440 374 1403 338 l 1431 433 q 1283 652 1367 533 q 1113 893 1199 771 q 967 1108 1026 1015 q 898 1141 947 1131 q 785 1151 849 1151 q 641 1144 739 1151 q 536 1138 543 1138 m 793 831 l 944 600 q 928 580 940 586 q 900 574 917 574 q 868 575 886 574 q 847 576 850 576 q 831 575 836 576 q 706 751 758 674 q 618 901 654 828 q 643 903 626 903 q 675 906 660 904 q 731 901 706 906 l 793 831 z "},"Q":{"ha":1421,"x_min":81,"x_max":1700,"o":"m 279 1149 q 669 1152 435 1149 q 947 1156 904 1156 l 1015 1086 l 1431 483 q 1686 350 1558 417 q 1700 271 1700 310 q 1653 117 1700 213 q 1600 0 1607 22 q 1517 32 1564 8 q 1426 78 1469 56 l 679 71 l 625 99 l 121 565 q 103 642 108 590 q 93 740 97 693 q 85 852 89 786 q 81 974 81 918 q 90 1131 81 1061 q 126 1144 99 1140 q 186 1149 154 1149 q 223 1148 204 1149 q 260 1147 242 1147 l 279 1149 m 279 1142 l 114 1135 q 93 1092 93 1131 q 119 1044 93 1083 q 248 844 144 1004 q 481 485 351 683 q 686 176 610 286 l 736 169 l 1442 176 q 1492 153 1456 175 q 1543 132 1529 132 q 1575 160 1564 132 l 1669 340 q 1537 417 1628 371 q 1426 474 1446 463 q 1253 725 1350 583 q 1104 940 1157 867 q 954 1140 1051 1014 q 838 1149 904 1146 q 714 1151 772 1151 q 490 1147 640 1151 q 279 1142 339 1142 m 789 858 l 968 596 l 917 474 q 956 442 922 457 q 999 411 990 428 q 953 407 975 407 q 901 417 922 407 q 867 457 881 428 l 579 900 l 579 919 q 629 924 593 919 q 686 928 665 928 q 754 913 728 928 q 789 858 781 899 z "},"R":{"ha":1386,"x_min":92,"x_max":1821,"o":"m 1024 1143 q 1142 988 1085 1069 q 1233 852 1199 907 q 1353 651 1267 797 q 1354 625 1354 643 q 1353 594 1354 615 q 1351 563 1351 572 q 1363 513 1351 531 q 1406 496 1374 496 q 1639 285 1476 443 q 1808 121 1801 126 q 1818 92 1815 108 q 1821 58 1821 75 q 1821 32 1821 44 q 1818 15 1818 19 l 1333 0 q 1144 131 1239 65 q 1147 106 1146 124 q 1149 72 1147 88 q 1144 15 1149 40 q 1041 2 1092 6 q 914 -1 990 -1 l 893 -1 l 872 -1 l 856 -1 q 803 -1 829 -1 q 751 0 778 0 l 736 0 l 268 399 l 264 396 q 179 474 242 421 q 93 551 117 528 l 93 631 l 93 697 l 93 753 l 93 800 l 93 842 l 93 879 l 93 913 l 93 942 l 93 967 l 93 988 l 93 1007 l 93 1024 q 92 1074 93 1049 q 92 1126 92 1100 l 92 1143 q 613 1149 276 1143 q 989 1156 950 1156 l 1024 1143 m 994 1139 l 139 1139 l 126 1126 l 733 121 q 820 120 776 121 q 908 119 864 119 q 1008 122 963 119 q 1094 133 1054 125 q 992 308 1068 185 q 892 475 915 432 l 892 507 q 1028 392 949 468 q 1206 226 1108 317 q 1299 141 1240 164 q 1440 118 1357 118 q 1571 126 1483 118 q 1700 135 1658 135 q 1760 131 1731 135 q 1560 331 1692 207 q 1410 475 1428 456 l 1065 568 l 1033 590 q 1088 600 1054 597 q 1156 603 1122 603 l 1226 603 q 1294 607 1261 603 q 1321 622 1311 615 q 1331 646 1331 629 q 1326 663 1331 654 l 1046 1100 l 994 1139 m 889 690 q 850 669 872 678 q 807 660 828 660 q 785 663 801 660 q 700 799 733 743 q 640 913 667 854 q 700 917 668 917 q 756 907 732 917 q 821 822 794 868 q 889 690 847 775 z "},"S":{"ha":1340,"x_min":78,"x_max":1622,"o":"m 961 1156 q 1059 1017 983 1114 q 1135 833 1135 919 q 1133 814 1133 821 l 1133 801 l 1211 758 q 1413 456 1307 625 q 1617 128 1518 286 q 1619 97 1617 119 q 1622 64 1622 75 q 1615 28 1622 42 q 1590 10 1608 15 q 1303 8 1475 10 q 978 6 1132 7 q 671 4 824 6 q 579 81 651 25 q 507 197 507 138 q 302 325 408 225 q 100 517 196 425 l 78 563 l 82 1110 q 97 1138 82 1129 q 139 1149 113 1146 q 616 1152 325 1149 q 961 1156 907 1156 m 126 1132 q 104 1090 96 1115 l 414 563 l 451 540 l 931 540 l 969 528 q 1006 473 975 517 q 1038 404 1038 429 q 1024 369 1038 388 q 784 360 947 369 q 561 351 621 351 q 620 237 581 299 q 697 119 660 175 l 1568 119 q 1579 131 1572 124 q 1586 149 1586 138 l 1204 743 l 1163 765 l 667 769 q 607 828 632 793 q 588 901 582 864 q 817 919 694 914 q 1085 924 939 924 q 1032 1022 1061 974 q 957 1135 1003 1069 q 677 1134 817 1135 q 400 1133 538 1133 q 126 1132 263 1132 z "},"T":{"ha":1235,"x_min":65,"x_max":1356,"o":"m 558 1149 q 788 1153 632 1149 q 1022 1157 943 1157 l 1188 907 q 1196 651 1188 821 q 1204 446 1204 481 l 1175 428 q 1274 240 1204 360 q 1356 101 1344 121 l 1353 4 l 992 0 q 831 143 949 38 q 656 302 714 249 q 519 428 597 356 l 190 428 l 65 551 l 65 1144 l 558 1149 m 558 1144 q 253 1142 428 1143 q 74 1125 79 1140 q 218 900 146 1013 l 503 903 q 654 663 546 836 q 837 365 763 489 q 992 107 911 242 l 1010 93 q 1177 96 1101 93 q 1331 107 1253 99 l 1325 139 q 1151 429 1264 247 q 983 705 1039 611 q 876 903 928 799 l 1153 918 l 1153 944 l 1010 1153 l 558 1144 z "},"U":{"ha":1383,"x_min":78,"x_max":1638,"o":"m 603 953 q 613 1051 611 986 q 625 1151 614 1117 l 893 1156 q 915 1157 900 1157 q 971 1153 933 1157 q 1021 1149 1008 1149 l 1625 194 q 1633 133 1628 168 q 1638 82 1638 97 q 1629 24 1638 53 l 1590 0 l 714 3 l 644 44 q 451 215 588 96 q 236 403 314 333 q 78 554 158 474 l 83 1144 l 365 1151 q 429 1157 400 1157 q 517 1095 479 1157 q 603 953 554 1033 m 94 1135 l 690 133 q 724 108 711 115 q 751 100 738 100 l 1594 100 q 1626 157 1626 114 q 1613 199 1626 183 l 1010 1144 q 981 1146 1007 1146 q 938 1147 956 1146 q 899 1147 918 1147 q 864 1149 881 1147 l 836 1149 l 653 1144 l 653 1117 l 1067 438 l 1067 388 q 1007 378 1042 378 q 970 380 990 378 q 940 383 950 382 l 900 422 l 471 1139 q 428 1149 456 1149 q 394 1147 408 1149 q 367 1143 381 1144 q 297 1143 332 1143 q 228 1144 263 1143 q 94 1135 153 1144 z "},"V":{"ha":1243,"x_min":67,"x_max":1431,"o":"m 1071 1142 q 1188 781 1126 963 q 1319 389 1249 599 q 1410 112 1390 179 q 1431 40 1431 44 q 1392 0 1431 6 l 1086 0 l 81 532 q 69 692 72 603 q 67 867 67 782 q 67 1006 67 936 q 68 1147 67 1076 l 490 1153 q 601 1038 544 1094 q 704 944 658 981 q 711 991 710 968 q 713 1044 713 1014 q 712 1095 713 1069 q 711 1147 711 1121 l 725 1157 l 1058 1157 l 1071 1142 m 733 1135 q 797 969 739 1117 q 865 765 854 821 l 850 765 l 483 1140 q 403 1140 443 1140 q 322 1142 363 1140 q 199 1140 242 1142 q 100 1129 156 1138 q 381 827 244 969 q 749 451 518 685 q 1090 106 979 218 q 1169 105 1129 106 q 1251 104 1210 104 l 1269 104 q 1396 113 1335 104 q 1283 454 1339 283 q 1169 797 1226 625 q 1053 1140 1111 968 q 963 1142 1024 1140 q 872 1143 903 1143 q 800 1142 832 1143 q 733 1135 768 1140 z "},"W":{"ha":1958,"x_min":106,"x_max":2213,"o":"m 2207 92 q 2209 56 2206 78 q 2213 31 2213 35 q 2211 18 2213 22 q 2126 7 2171 10 q 2025 4 2081 4 q 1887 7 1983 4 q 1786 10 1790 10 q 1549 131 1718 42 q 1301 256 1379 219 l 1293 247 q 1333 56 1313 151 q 1328 10 1333 31 q 1126 6 1258 10 q 919 1 994 1 q 685 152 796 78 q 367 371 575 226 q 157 517 160 515 l 135 551 l 106 1124 q 190 1132 136 1129 q 286 1135 244 1135 l 363 1135 l 379 1135 q 489 1139 436 1135 q 588 1041 532 1106 q 713 900 644 976 l 706 1139 l 1046 1144 q 1171 1040 1119 1083 q 1271 968 1222 997 l 1274 1144 q 1471 1150 1338 1144 q 1676 1156 1604 1156 l 2207 92 m 1301 1129 q 1363 985 1322 1074 q 1453 793 1403 897 l 1444 786 l 1046 1129 q 964 1129 1004 1129 q 885 1131 924 1129 q 732 1121 806 1131 q 775 937 743 1057 q 817 758 807 817 l 808 753 l 503 1121 q 373 1122 422 1121 q 282 1125 324 1124 q 135 1117 206 1125 l 135 1101 q 925 108 529 604 l 1301 114 q 1252 312 1276 217 q 1208 495 1228 407 q 1176 651 1188 583 q 1383 478 1276 575 q 1608 274 1489 382 q 1794 108 1726 165 q 1893 108 1843 108 q 1994 107 1943 107 l 2018 107 q 2175 115 2097 107 l 2175 131 q 2023 444 2138 207 q 1829 839 1908 682 q 1664 1144 1750 996 q 1592 1144 1628 1144 q 1524 1146 1557 1144 q 1409 1143 1458 1146 q 1301 1129 1360 1140 z "},"X":{"ha":1300,"x_min":83,"x_max":1749,"o":"m 1128 1125 l 1118 685 l 1744 126 l 1749 18 l 1342 6 q 1118 96 1229 50 q 1104 68 1104 85 q 1107 44 1104 61 q 1110 26 1110 28 q 1106 10 1110 18 q 848 8 1003 10 q 692 6 693 6 q 688 74 688 39 q 690 162 688 113 q 693 243 692 211 q 692 276 692 265 l 692 293 l 128 544 l 115 579 l 83 1138 q 149 1133 115 1133 q 306 1145 197 1133 q 450 1157 414 1157 q 594 1131 532 1157 q 703 1036 657 1104 q 725 1067 719 1042 q 732 1149 728 1107 q 838 1158 783 1156 q 974 1160 892 1160 l 1118 1160 l 1128 1125 m 1110 1142 q 941 1140 1028 1142 q 769 1138 854 1139 q 744 1065 747 1122 q 738 999 740 1008 q 644 1065 703 1014 q 553 1133 585 1117 l 115 1128 q 305 962 193 1054 q 524 783 417 869 q 725 611 632 696 l 715 108 q 810 108 763 108 q 904 107 857 107 q 1008 109 979 107 q 1088 118 1036 111 q 1090 154 1089 128 q 1092 182 1092 181 l 1092 213 q 1092 256 1092 235 q 1100 300 1093 278 q 1231 197 1144 271 q 1324 118 1317 124 l 1722 118 q 1556 283 1636 210 q 1324 489 1476 356 q 1106 685 1171 622 l 1110 1142 z "},"Y":{"ha":1199,"x_min":68,"x_max":1442,"o":"m 1168 526 l 1442 115 l 1442 10 q 1226 1 1364 3 q 1074 0 1088 0 q 935 90 1014 38 q 758 210 856 143 q 552 312 661 256 q 327 431 443 368 q 103 553 211 493 q 76 863 85 736 q 68 1135 68 989 q 288 1144 139 1143 q 514 1154 436 1146 q 597 1093 519 1151 q 708 1024 675 1035 l 714 1149 q 850 1153 760 1149 q 982 1157 940 1157 q 1022 1157 1003 1157 q 1065 1154 1040 1157 l 1168 526 m 1047 1139 q 963 1140 1019 1139 q 878 1142 906 1142 q 798 1139 836 1142 q 725 1128 760 1136 l 732 983 q 637 1051 706 1000 q 525 1132 568 1101 q 322 1131 424 1132 q 118 1128 219 1129 l 114 1117 q 320 944 201 1040 q 566 744 439 847 q 771 575 693 642 q 880 407 807 524 q 990 233 953 290 q 1079 111 1026 176 l 1408 108 l 1419 121 q 1286 332 1354 224 q 1149 531 1218 440 l 1058 1113 l 1047 1139 z "},"Z":{"ha":1424,"x_min":83,"x_max":1757,"o":"m 121 1140 q 113 1119 113 1129 q 130 1084 113 1108 q 149 1051 147 1060 l 253 907 l 739 907 l 775 121 l 788 106 l 1707 99 q 1725 115 1725 100 q 1719 133 1725 122 q 1713 147 1714 143 q 1745 97 1733 138 q 1757 15 1757 56 l 1749 0 l 767 15 l 753 26 l 732 401 l 714 413 l 274 418 l 121 560 q 92 837 101 689 q 83 1144 83 985 q 393 1147 271 1144 q 688 1151 515 1149 q 957 1154 861 1154 q 986 1156 965 1154 q 1017 1157 1007 1157 q 1056 1149 1042 1157 q 1069 1118 1069 1142 l 1122 406 l 1140 389 l 1558 385 q 1704 158 1644 269 l 1572 363 q 1365 380 1474 375 q 1122 385 1257 385 l 1111 424 q 1096 771 1111 599 q 1051 1140 1081 943 q 1025 1144 1043 1144 q 992 1143 1017 1144 q 954 1142 968 1142 l 121 1140 z "},"a":{"ha":1115,"x_min":76,"x_max":1601,"o":"m 529 1149 q 887 800 643 1035 q 1297 399 1131 565 q 1600 81 1463 233 q 1601 36 1601 51 q 1583 8 1601 11 l 1082 14 q 1050 46 1071 38 q 997 54 1029 54 q 963 53 986 54 q 928 51 939 51 l 915 8 q 754 6 868 8 q 632 3 640 3 l 615 3 l 599 3 q 489 8 538 3 q 92 533 290 271 l 76 1142 q 249 1149 131 1142 q 403 1157 367 1157 q 529 1149 464 1157 m 288 1144 q 253 1141 276 1142 q 215 1140 229 1140 q 155 1140 185 1140 q 99 1129 125 1139 q 228 794 163 960 q 360 462 293 629 q 489 131 426 294 l 517 99 l 876 99 q 867 133 878 113 q 856 160 856 153 q 865 181 856 171 q 906 181 885 181 q 947 182 926 181 q 1050 167 1011 182 q 1107 103 1089 151 l 1547 103 q 1233 438 1400 268 q 904 765 1067 608 q 511 1139 742 922 l 288 1144 m 876 360 l 768 360 q 690 506 714 458 q 642 624 665 554 q 772 485 724 539 q 876 360 821 432 z "},"b":{"ha":1344,"x_min":96,"x_max":1632,"o":"m 976 1128 l 1226 783 l 1221 726 q 1299 683 1261 714 q 1364 610 1336 651 q 1505 416 1378 582 q 1632 140 1632 250 q 1614 39 1632 92 l 1582 15 q 1325 -2 1467 3 q 1018 -7 1183 -7 l 985 -7 l 956 -7 l 931 -7 l 910 -7 l 889 -7 l 872 -7 q 822 -6 847 -7 q 772 -6 797 -6 l 760 -6 q 569 136 651 69 q 329 334 486 203 q 119 507 172 465 q 108 842 119 617 q 96 1144 96 1067 q 164 1151 133 1150 q 207 1151 194 1151 l 938 1151 l 976 1128 m 857 1149 q 610 1133 747 1138 q 332 1128 474 1128 l 114 1128 l 114 1107 q 308 791 190 976 q 549 414 426 606 q 742 103 671 222 q 1145 104 943 103 q 1550 107 1347 106 l 1594 150 q 1604 194 1604 171 q 1599 235 1604 218 q 1578 281 1593 251 l 1310 640 q 1238 694 1286 678 q 1147 717 1176 710 q 1190 744 1175 731 q 1204 783 1204 758 q 1109 922 1164 847 q 994 1072 1054 996 q 936 1128 974 1107 q 857 1149 899 1149 m 764 890 q 809 831 786 861 q 836 767 832 801 q 803 756 821 758 q 761 753 785 753 q 722 754 749 753 q 683 756 696 756 l 581 906 q 633 913 610 910 q 675 915 657 915 q 726 910 707 915 q 764 890 744 906 m 1097 372 l 1097 356 q 1040 348 1072 353 q 992 343 1007 343 q 942 350 963 343 q 885 426 918 375 q 815 538 853 476 q 866 547 835 542 q 915 551 897 551 q 960 547 942 551 q 999 529 979 542 q 1059 452 1035 489 q 1097 372 1083 415 z "},"c":{"ha":1178,"x_min":76,"x_max":1604,"o":"m 1063 900 l 1072 544 q 1033 533 1054 536 q 986 531 1011 531 q 933 532 960 531 q 882 535 907 533 q 808 525 842 535 q 855 428 836 461 q 908 371 874 396 q 1027 364 969 365 q 1163 363 1085 363 l 1196 363 l 1225 363 l 1250 363 l 1271 363 l 1290 363 l 1307 363 q 1357 363 1332 363 q 1407 364 1382 363 l 1419 364 l 1600 94 q 1597 78 1597 83 q 1601 49 1597 67 q 1604 31 1604 32 q 1586 3 1604 13 q 1458 0 1547 3 q 1363 -3 1368 -3 q 1293 -3 1328 -3 q 1249 3 1263 1 l 667 7 l 594 57 l 115 536 l 93 589 q 89 644 90 613 q 88 706 88 675 q 89 794 88 735 q 90 883 90 854 q 88 976 90 949 q 78 1051 86 1003 q 78 1068 79 1056 q 76 1094 76 1081 q 85 1121 76 1113 l 128 1142 q 389 1144 265 1142 q 663 1151 513 1147 q 886 1156 814 1156 l 1063 900 m 133 1140 q 94 1076 94 1122 q 142 980 94 1058 q 281 751 189 901 q 449 468 372 600 q 606 193 526 336 l 671 117 q 992 115 867 117 q 1293 110 1117 113 q 1568 107 1469 107 q 1488 247 1524 190 q 1406 350 1451 303 l 921 350 l 882 369 l 557 892 l 583 919 l 1018 926 q 939 1067 963 1029 q 869 1142 915 1104 l 133 1140 z "},"d":{"ha":1324,"x_min":68,"x_max":1625,"o":"m 389 1156 l 926 1156 l 979 1128 q 1185 840 1079 993 q 1400 522 1292 686 q 1611 203 1508 358 q 1622 144 1618 167 q 1625 94 1625 122 q 1621 49 1625 72 l 1572 7 l 689 0 q 464 192 614 67 q 240 382 314 317 q 79 535 165 447 l 68 1133 q 187 1149 74 1142 q 389 1156 300 1156 m 392 1150 q 198 1144 308 1147 q 88 1128 88 1142 l 671 132 l 706 100 l 1563 106 q 1596 126 1582 113 q 1607 158 1610 140 l 1589 215 l 983 1104 q 933 1140 961 1126 q 876 1154 904 1154 q 851 1150 864 1154 l 392 1150 m 792 847 l 1040 447 q 1048 417 1043 435 q 1053 392 1053 400 q 1044 364 1053 376 q 1017 357 1031 358 q 986 356 1003 356 q 926 364 958 356 q 835 499 878 432 q 708 703 793 565 q 579 908 622 840 q 663 922 621 922 q 740 904 706 922 q 792 847 775 886 z "},"e":{"ha":1383,"x_min":111,"x_max":1746,"o":"m 647 1156 q 892 1158 740 1156 q 1046 1160 1044 1160 q 1139 1023 1058 1131 q 1219 840 1219 915 q 1210 775 1219 808 q 1308 760 1250 760 q 1399 626 1317 740 q 1481 433 1481 513 q 1472 371 1481 404 q 1497 360 1481 363 q 1515 357 1513 357 q 1550 358 1539 358 q 1568 357 1563 358 l 1740 96 q 1743 68 1740 86 q 1746 40 1746 50 q 1741 19 1746 28 q 1724 3 1736 10 l 740 0 l 122 522 l 111 557 l 111 1153 l 647 1156 m 647 1147 l 144 1142 l 160 1099 q 345 787 238 974 q 556 420 453 600 q 744 100 660 240 q 1226 99 985 100 q 1710 96 1468 97 q 1719 113 1719 96 q 1679 181 1719 122 q 1561 350 1639 239 l 1015 350 q 958 438 978 406 q 926 510 939 469 l 1440 513 q 1447 529 1447 519 q 1431 561 1447 540 q 1413 593 1414 582 l 1301 753 l 771 760 q 728 831 750 789 q 688 911 707 872 l 1175 921 l 1183 933 l 1051 1142 l 1024 1156 l 647 1147 z "},"f":{"ha":1308,"x_min":68,"x_max":1432,"o":"m 417 1150 q 730 1153 521 1150 q 960 1157 939 1157 q 1063 1019 974 1128 q 1153 835 1153 910 q 1144 779 1153 808 q 1163 765 1151 769 q 1186 761 1175 761 q 1224 763 1213 763 q 1239 761 1235 763 q 1346 609 1260 722 q 1432 400 1432 496 q 1431 368 1432 379 q 1422 333 1429 357 q 1406 308 1428 306 l 1017 304 q 1011 285 1011 297 q 1017 257 1011 271 q 1034 225 1024 243 q 1085 150 1044 207 q 1125 44 1125 93 q 1121 14 1125 31 q 1037 3 1081 6 q 940 0 993 0 q 876 0 908 0 q 813 1 844 0 q 719 -3 764 1 l 675 22 q 487 184 597 92 q 273 364 376 276 q 81 533 169 451 q 74 896 81 664 q 68 1144 68 1128 l 417 1150 m 418 1142 q 205 1140 311 1142 q 92 1128 99 1138 q 260 847 211 928 q 458 524 308 767 q 714 111 608 281 l 742 89 q 820 88 781 89 q 900 88 860 88 q 999 90 954 88 q 1088 103 1044 93 q 1012 236 1064 149 q 924 389 960 324 q 865 510 888 454 l 1378 522 q 1318 641 1357 583 q 1226 754 1279 699 l 722 744 q 672 815 694 761 q 625 888 649 868 l 625 906 l 1093 918 q 1100 936 1100 928 q 1078 981 1100 950 q 1056 1017 1057 1011 l 954 1150 l 418 1142 z "},"g":{"ha":1338,"x_min":79,"x_max":1658,"o":"m 1049 1051 q 1141 921 1067 1015 q 1215 746 1215 826 q 1214 725 1215 732 l 1288 718 l 1657 168 q 1656 140 1656 160 q 1657 112 1656 132 q 1658 81 1658 92 q 1649 38 1658 53 q 1607 17 1639 22 l 721 0 l 656 32 l 150 461 l 111 522 l 79 1103 q 122 1147 86 1138 q 408 1149 297 1147 q 676 1154 519 1151 q 921 1157 832 1157 q 997 1115 965 1153 q 1049 1051 1028 1076 m 140 1140 q 107 1122 119 1133 q 92 1090 94 1110 q 264 808 167 964 q 466 486 361 653 q 668 165 571 319 l 732 100 q 1006 103 843 100 q 1332 108 1169 106 q 1603 111 1494 111 l 1621 99 q 1635 144 1629 122 q 1640 182 1642 167 q 1500 388 1586 260 q 1374 572 1414 515 q 1275 704 1333 629 l 893 699 l 864 686 l 1000 454 q 1019 450 1008 450 q 1044 451 1036 451 q 1073 441 1068 451 q 1090 412 1078 431 q 1103 383 1103 393 q 1088 360 1103 369 q 1042 350 1058 353 q 1007 347 1026 347 q 943 367 971 347 l 638 825 l 606 892 q 626 907 611 900 q 663 914 640 914 q 685 913 672 914 q 717 911 699 913 q 733 913 728 911 l 828 825 l 1156 832 l 1175 847 q 953 1140 1064 993 l 140 1140 z "},"h":{"ha":1315,"x_min":82,"x_max":1672,"o":"m 1667 107 q 1672 80 1671 86 q 1672 57 1672 74 q 1651 10 1672 21 l 1283 10 q 1147 92 1215 50 q 1138 56 1138 81 l 1138 39 q 1135 14 1138 21 q 1121 4 1133 7 l 747 0 q 502 212 674 65 q 268 413 331 358 q 93 578 206 468 q 88 858 93 669 q 82 1142 82 1047 l 428 1147 q 492 1063 453 1125 q 553 978 531 1000 q 563 1029 563 996 q 561 1068 563 1040 q 560 1110 560 1096 q 565 1151 560 1135 q 792 1153 657 1151 q 931 1156 928 1156 l 1667 107 m 921 1140 q 853 1140 888 1140 q 785 1142 819 1140 q 678 1140 715 1142 q 592 1129 640 1138 q 681 986 617 1078 q 765 853 744 894 q 737 842 754 844 q 701 839 719 839 l 656 839 l 629 839 q 525 985 575 913 q 428 1135 475 1058 q 358 1135 393 1135 q 286 1136 322 1135 q 196 1133 238 1136 q 115 1121 154 1131 q 341 749 228 935 q 522 453 454 563 q 721 144 590 344 l 760 103 l 1093 107 q 990 273 1063 163 q 885 435 918 383 q 822 546 851 488 q 852 558 836 554 q 890 561 868 561 q 925 560 901 561 q 960 558 949 558 q 1076 405 1008 496 q 1190 251 1144 314 q 1289 114 1235 189 l 1625 114 l 1631 122 l 921 1140 z "},"i":{"ha":849,"x_min":61,"x_max":1179,"o":"m 472 1157 q 737 763 546 1047 q 968 419 928 479 q 1179 93 1008 358 l 1179 10 q 1030 -2 1110 1 q 863 -6 950 -6 l 753 -6 q 540 162 644 76 q 312 354 436 247 q 75 560 188 461 q 68 867 75 654 q 61 1157 61 1079 l 472 1157 m 110 1144 l 100 1128 l 744 110 q 815 99 779 101 q 894 96 851 96 q 1018 100 936 96 q 1140 104 1100 104 q 931 438 1022 296 q 708 776 839 581 q 461 1144 576 971 l 110 1144 z "},"j":{"ha":1189,"x_min":225,"x_max":1472,"o":"m 678 1156 q 735 1156 706 1156 q 797 1157 765 1156 l 814 1157 q 1012 862 897 1038 q 1261 475 1126 686 q 1467 158 1396 264 q 1469 121 1467 147 q 1472 81 1472 94 q 1466 43 1472 60 q 1444 17 1460 26 q 916 13 1239 17 q 544 10 593 10 q 381 122 474 44 q 239 242 289 199 q 228 326 231 285 q 225 411 225 367 q 227 483 225 444 q 235 579 229 522 l 421 583 l 433 596 q 432 753 433 646 q 431 917 431 861 q 432 1045 431 990 q 439 1157 433 1100 l 678 1156 m 675 1149 l 449 1149 l 897 397 q 873 372 890 379 q 835 365 856 365 q 799 367 817 365 q 765 369 782 368 q 717 424 733 403 q 621 564 700 446 l 576 579 q 393 577 450 579 q 257 561 336 575 q 535 110 374 350 l 571 93 l 1426 100 q 1460 143 1460 118 q 1267 454 1357 313 q 1005 858 1176 596 q 822 1138 833 1121 q 777 1149 808 1144 q 714 1153 746 1153 q 675 1149 688 1153 z "},"k":{"ha":1344,"x_min":88,"x_max":1749,"o":"m 524 1108 q 633 929 601 979 q 708 817 664 879 q 722 940 718 871 q 725 1026 725 1008 q 724 1078 725 1051 q 724 1132 724 1104 l 724 1149 q 889 1150 806 1149 q 1057 1153 972 1151 q 1081 917 1072 1072 q 1100 582 1089 763 q 1122 572 1108 575 q 1150 569 1136 569 l 1174 569 q 1210 565 1199 569 q 1388 405 1303 485 q 1556 248 1472 325 q 1746 78 1640 171 q 1749 33 1749 49 q 1741 6 1749 13 q 1718 0 1733 0 l 1296 10 l 1158 100 l 1154 10 l 724 4 q 518 185 631 81 q 295 392 406 289 q 93 578 185 496 q 90 906 93 676 q 88 1149 88 1136 l 475 1157 l 524 1108 m 126 1142 l 114 1126 q 348 733 211 968 q 558 372 485 497 q 706 131 632 247 l 735 100 l 1119 104 l 1119 118 q 858 560 989 339 q 1004 411 932 490 q 1152 248 1076 332 q 1289 100 1228 164 l 1669 92 l 1697 104 l 1210 553 q 1181 558 1199 558 q 1153 557 1168 558 q 1136 556 1138 556 q 1088 582 1101 556 l 1061 1104 l 1050 1142 q 967 1142 1008 1142 q 883 1143 925 1142 q 804 1142 838 1143 q 735 1135 771 1140 q 731 1079 732 1111 q 729 1017 729 1047 q 732 889 729 978 q 735 793 735 800 l 718 774 q 479 1142 599 957 l 126 1142 z "},"l":{"ha":1326,"x_min":79,"x_max":1664,"o":"m 351 1149 q 267 1150 328 1149 q 203 1151 206 1151 q 138 1150 164 1151 q 93 1143 113 1149 l 115 1085 q 303 772 183 976 q 528 394 422 568 q 724 92 635 219 l 1622 97 l 1633 107 l 1336 565 q 1169 575 1263 575 q 1006 560 1076 575 q 1108 371 1057 465 q 1072 364 1090 365 q 1028 363 1053 363 q 949 367 985 363 q 791 616 878 472 q 622 897 704 760 q 460 1150 539 1035 l 351 1149 m 315 1157 l 390 1157 l 475 1150 q 633 892 497 1114 q 812 599 768 669 q 954 383 856 529 q 971 378 964 381 q 979 440 979 411 q 976 490 979 457 q 974 542 974 524 q 975 575 974 564 q 1058 582 1018 581 q 1153 583 1099 583 q 1242 583 1197 583 q 1331 582 1286 582 q 1431 440 1375 522 q 1551 260 1486 358 q 1656 101 1615 161 q 1658 60 1651 89 q 1664 26 1664 32 q 1636 0 1664 0 q 1622 1 1628 0 l 692 1 q 363 278 518 143 q 79 538 207 413 l 79 1149 q 189 1156 131 1154 q 315 1157 247 1157 z "},"m":{"ha":1646,"x_min":83,"x_max":1990,"o":"m 107 1153 l 469 1153 q 871 792 669 972 q 878 878 876 838 q 881 985 881 918 l 881 1006 l 881 1024 l 881 1040 q 880 1090 881 1065 q 879 1140 879 1115 l 879 1153 l 1249 1157 l 1990 81 l 1986 4 l 1551 0 q 1492 62 1540 8 q 1419 132 1443 115 q 1418 111 1418 126 q 1419 81 1418 96 q 1422 50 1421 65 q 1414 13 1422 26 q 1385 0 1406 0 q 1352 0 1368 0 q 1319 -1 1336 0 q 1222 11 1263 -1 q 1150 64 1181 24 q 1143 65 1144 67 q 1133 49 1133 57 q 1136 33 1133 44 q 1139 17 1139 22 q 1135 4 1139 11 l 704 0 q 597 83 671 18 q 514 154 522 149 l 115 503 q 91 803 99 642 q 83 1142 83 965 q 107 1153 89 1153 m 121 1147 l 96 1142 l 115 1096 l 704 97 q 848 94 750 97 q 947 92 946 92 q 1033 94 1008 92 q 1104 103 1057 96 q 1033 231 1083 144 q 972 335 982 317 q 1109 207 978 332 q 1304 82 1240 82 q 1397 110 1347 82 l 1364 365 q 1469 220 1403 322 q 1551 97 1536 118 q 1683 89 1614 89 q 1819 93 1728 89 q 1957 97 1911 97 l 1951 119 q 1760 393 1850 263 q 1522 744 1671 524 q 1249 1149 1374 965 l 914 1149 q 908 1099 908 1126 q 919 1008 908 1072 q 931 922 931 943 q 958 776 954 803 q 968 682 963 749 q 811 822 899 740 q 617 1005 724 903 q 469 1144 510 1107 l 446 1147 l 121 1147 z "},"n":{"ha":1436,"x_min":85,"x_max":1781,"o":"m 1775 106 l 1781 15 l 1369 4 q 1287 56 1342 15 q 1210 103 1232 96 l 1204 10 q 1108 3 1156 4 q 999 1 1061 1 q 881 3 958 1 q 767 4 803 4 l 114 549 q 99 843 114 639 q 85 1135 85 1047 l 108 1147 l 468 1151 q 639 1036 553 1093 l 642 1147 q 717 1153 676 1151 q 811 1154 758 1154 q 931 1153 851 1154 q 1044 1151 1010 1151 l 1775 106 m 678 1139 q 856 842 767 990 q 668 978 764 906 q 464 1139 572 1051 q 377 1139 421 1139 q 290 1140 333 1139 q 197 1138 222 1140 q 124 1129 171 1136 q 354 763 214 982 q 581 409 494 543 q 779 106 668 275 q 908 100 835 100 q 1052 103 951 100 q 1160 106 1153 106 l 933 447 q 929 465 929 454 q 939 481 929 479 l 1354 106 q 1580 108 1421 106 q 1746 111 1739 111 l 1746 125 q 1499 481 1615 315 q 1263 816 1383 647 q 1022 1147 1143 985 q 808 1143 932 1147 q 678 1139 683 1139 z "},"o":{"ha":1393,"x_min":79,"x_max":1649,"o":"m 878 1157 q 918 1156 904 1157 q 949 1147 932 1154 l 1044 1033 l 1635 190 q 1642 138 1635 174 q 1649 82 1649 101 q 1632 26 1649 49 l 1579 4 l 768 0 l 664 42 l 135 513 l 113 547 l 79 1104 q 95 1128 79 1119 q 129 1138 111 1138 q 378 1142 253 1138 q 651 1151 504 1146 q 878 1157 797 1157 m 881 1142 l 122 1131 q 99 1090 99 1119 q 107 1065 99 1076 l 708 131 l 753 101 l 1600 110 q 1629 156 1629 121 q 1613 201 1629 181 l 1004 1065 q 951 1119 978 1092 q 881 1142 918 1146 m 801 846 q 901 692 844 774 q 1015 527 958 610 q 1108 369 1071 444 q 1050 350 1090 350 q 1013 353 1038 350 q 975 356 988 356 q 858 524 917 435 q 735 713 800 613 q 628 872 669 814 q 631 899 628 889 q 647 907 633 908 q 750 898 715 907 q 801 846 785 889 z "},"p":{"ha":1335,"x_min":69,"x_max":1461,"o":"m 531 1144 q 636 1153 572 1149 q 764 1157 700 1157 q 883 1151 835 1157 q 961 1128 932 1144 l 1440 433 q 1455 358 1449 399 q 1461 288 1461 318 q 1448 198 1461 235 q 1401 144 1435 161 q 1131 128 1265 136 q 1146 99 1142 117 q 1150 64 1150 82 q 1149 39 1150 51 q 1149 14 1149 26 q 1027 6 1104 8 q 893 3 950 3 l 739 3 q 535 183 656 81 q 301 383 415 285 q 99 569 188 481 l 69 1131 l 531 1144 m 536 1138 l 79 1124 l 92 1086 l 744 100 q 839 99 792 100 q 935 99 886 99 q 1031 101 986 99 q 1114 113 1075 104 q 1001 301 1057 207 l 1013 314 q 1048 319 1024 317 q 1100 321 1072 321 q 1188 318 1126 321 q 1251 315 1250 315 q 1359 326 1315 315 q 1440 374 1403 338 l 1431 433 q 1283 652 1367 533 q 1113 893 1199 771 q 967 1108 1026 1015 q 898 1141 947 1131 q 785 1151 849 1151 q 641 1144 739 1151 q 536 1138 543 1138 m 793 831 l 944 600 q 928 580 940 586 q 900 574 917 574 q 868 575 886 574 q 847 576 850 576 q 831 575 836 576 q 706 751 758 674 q 618 901 654 828 q 643 903 626 903 q 675 906 660 904 q 731 901 706 906 l 793 831 z "},"q":{"ha":1421,"x_min":81,"x_max":1700,"o":"m 279 1149 q 669 1152 435 1149 q 947 1156 904 1156 l 1015 1086 l 1431 483 q 1686 350 1558 417 q 1700 271 1700 310 q 1653 117 1700 213 q 1600 0 1607 22 q 1517 32 1564 8 q 1426 78 1469 56 l 679 71 l 625 99 l 121 565 q 103 642 108 590 q 93 740 97 693 q 85 852 89 786 q 81 974 81 918 q 90 1131 81 1061 q 126 1144 99 1140 q 186 1149 154 1149 q 223 1148 204 1149 q 260 1147 242 1147 l 279 1149 m 279 1142 l 114 1135 q 93 1092 93 1131 q 119 1044 93 1083 q 248 844 144 1004 q 481 485 351 683 q 686 176 610 286 l 736 169 l 1442 176 q 1492 153 1456 175 q 1543 132 1529 132 q 1575 160 1564 132 l 1669 340 q 1537 417 1628 371 q 1426 474 1446 463 q 1253 725 1350 583 q 1104 940 1157 867 q 954 1140 1051 1014 q 838 1149 904 1146 q 714 1151 772 1151 q 490 1147 640 1151 q 279 1142 339 1142 m 789 858 l 968 596 l 917 474 q 956 442 922 457 q 999 411 990 428 q 953 407 975 407 q 901 417 922 407 q 867 457 881 428 l 579 900 l 579 919 q 629 924 593 919 q 686 928 665 928 q 754 913 728 928 q 789 858 781 899 z "},"r":{"ha":1386,"x_min":92,"x_max":1821,"o":"m 1024 1143 q 1142 988 1085 1069 q 1233 852 1199 907 q 1353 651 1267 797 q 1354 625 1354 643 q 1353 594 1354 615 q 1351 563 1351 572 q 1363 513 1351 531 q 1406 496 1374 496 q 1639 285 1476 443 q 1808 121 1801 126 q 1818 92 1815 108 q 1821 58 1821 75 q 1821 32 1821 44 q 1818 15 1818 19 l 1333 0 q 1144 131 1239 65 q 1147 106 1146 124 q 1149 72 1147 88 q 1144 15 1149 40 q 1041 2 1092 6 q 914 -1 990 -1 l 893 -1 l 872 -1 l 856 -1 q 803 -1 829 -1 q 751 0 778 0 l 736 0 l 268 399 l 264 396 q 179 474 242 421 q 93 551 117 528 l 93 631 l 93 697 l 93 753 l 93 800 l 93 842 l 93 879 l 93 913 l 93 942 l 93 967 l 93 988 l 93 1007 l 93 1024 q 92 1074 93 1049 q 92 1126 92 1100 l 92 1143 q 613 1149 276 1143 q 989 1156 950 1156 l 1024 1143 m 994 1139 l 139 1139 l 126 1126 l 733 121 q 820 120 776 121 q 908 119 864 119 q 1008 122 963 119 q 1094 133 1054 125 q 992 308 1068 185 q 892 475 915 432 l 892 507 q 1028 392 949 468 q 1206 226 1108 317 q 1299 141 1240 164 q 1440 118 1357 118 q 1571 126 1483 118 q 1700 135 1658 135 q 1760 131 1731 135 q 1560 331 1692 207 q 1410 475 1428 456 l 1065 568 l 1033 590 q 1088 600 1054 597 q 1156 603 1122 603 l 1226 603 q 1294 607 1261 603 q 1321 622 1311 615 q 1331 646 1331 629 q 1326 663 1331 654 l 1046 1100 l 994 1139 m 889 690 q 850 669 872 678 q 807 660 828 660 q 785 663 801 660 q 700 799 733 743 q 640 913 667 854 q 700 917 668 917 q 756 907 732 917 q 821 822 794 868 q 889 690 847 775 z "},"s":{"ha":1340,"x_min":78,"x_max":1622,"o":"m 961 1156 q 1059 1017 983 1114 q 1135 833 1135 919 q 1133 814 1133 821 l 1133 801 l 1211 758 q 1413 456 1307 625 q 1617 128 1518 286 q 1619 97 1617 119 q 1622 64 1622 75 q 1615 28 1622 42 q 1590 10 1608 15 q 1303 8 1475 10 q 978 6 1132 7 q 671 4 824 6 q 579 81 651 25 q 507 197 507 138 q 302 325 408 225 q 100 517 196 425 l 78 563 l 82 1110 q 97 1138 82 1129 q 139 1149 113 1146 q 616 1152 325 1149 q 961 1156 907 1156 m 126 1132 q 104 1090 96 1115 l 414 563 l 451 540 l 931 540 l 969 528 q 1006 473 975 517 q 1038 404 1038 429 q 1024 369 1038 388 q 784 360 947 369 q 561 351 621 351 q 620 237 581 299 q 697 119 660 175 l 1568 119 q 1579 131 1572 124 q 1586 149 1586 138 l 1204 743 l 1163 765 l 667 769 q 607 828 632 793 q 588 901 582 864 q 817 919 694 914 q 1085 924 939 924 q 1032 1022 1061 974 q 957 1135 1003 1069 q 677 1134 817 1135 q 400 1133 538 1133 q 126 1132 263 1132 z "},"t":{"ha":1235,"x_min":65,"x_max":1356,"o":"m 558 1149 q 788 1153 632 1149 q 1022 1157 943 1157 l 1188 907 q 1196 651 1188 821 q 1204 446 1204 481 l 1175 428 q 1274 240 1204 360 q 1356 101 1344 121 l 1353 4 l 992 0 q 831 143 949 38 q 656 302 714 249 q 519 428 597 356 l 190 428 l 65 551 l 65 1144 l 558 1149 m 558 1144 q 253 1142 428 1143 q 74 1125 79 1140 q 218 900 146 1013 l 503 903 q 654 663 546 836 q 837 365 763 489 q 992 107 911 242 l 1010 93 q 1177 96 1101 93 q 1331 107 1253 99 l 1325 139 q 1151 429 1264 247 q 983 705 1039 611 q 876 903 928 799 l 1153 918 l 1153 944 l 1010 1153 l 558 1144 z "},"u":{"ha":1383,"x_min":78,"x_max":1638,"o":"m 603 953 q 613 1051 611 986 q 625 1151 614 1117 l 893 1156 q 915 1157 900 1157 q 971 1153 933 1157 q 1021 1149 1008 1149 l 1625 194 q 1633 133 1628 168 q 1638 82 1638 97 q 1629 24 1638 53 l 1590 0 l 714 3 l 644 44 q 451 215 588 96 q 236 403 314 333 q 78 554 158 474 l 83 1144 l 365 1151 q 429 1157 400 1157 q 517 1095 479 1157 q 603 953 554 1033 m 94 1135 l 690 133 q 724 108 711 115 q 751 100 738 100 l 1594 100 q 1626 157 1626 114 q 1613 199 1626 183 l 1010 1144 q 981 1146 1007 1146 q 938 1147 956 1146 q 899 1147 918 1147 q 864 1149 881 1147 l 836 1149 l 653 1144 l 653 1117 l 1067 438 l 1067 388 q 1007 378 1042 378 q 970 380 990 378 q 940 383 950 382 l 900 422 l 471 1139 q 428 1149 456 1149 q 394 1147 408 1149 q 367 1143 381 1144 q 297 1143 332 1143 q 228 1144 263 1143 q 94 1135 153 1144 z "},"v":{"ha":1243,"x_min":67,"x_max":1431,"o":"m 1071 1142 q 1188 781 1126 963 q 1319 389 1249 599 q 1410 112 1390 179 q 1431 40 1431 44 q 1392 0 1431 6 l 1086 0 l 81 532 q 69 692 72 603 q 67 867 67 782 q 67 1006 67 936 q 68 1147 67 1076 l 490 1153 q 601 1038 544 1094 q 704 944 658 981 q 711 991 710 968 q 713 1044 713 1014 q 712 1095 713 1069 q 711 1147 711 1121 l 725 1157 l 1058 1157 l 1071 1142 m 733 1135 q 797 969 739 1117 q 865 765 854 821 l 850 765 l 483 1140 q 403 1140 443 1140 q 322 1142 363 1140 q 199 1140 242 1142 q 100 1129 156 1138 q 381 827 244 969 q 749 451 518 685 q 1090 106 979 218 q 1169 105 1129 106 q 1251 104 1210 104 l 1269 104 q 1396 113 1335 104 q 1283 454 1339 283 q 1169 797 1226 625 q 1053 1140 1111 968 q 963 1142 1024 1140 q 872 1143 903 1143 q 800 1142 832 1143 q 733 1135 768 1140 z "},"w":{"ha":1958,"x_min":106,"x_max":2213,"o":"m 2207 92 q 2209 56 2206 78 q 2213 31 2213 35 q 2211 18 2213 22 q 2126 7 2171 10 q 2025 4 2081 4 q 1887 7 1983 4 q 1786 10 1790 10 q 1549 131 1718 42 q 1301 256 1379 219 l 1293 247 q 1333 56 1313 151 q 1328 10 1333 31 q 1126 6 1258 10 q 919 1 994 1 q 685 152 796 78 q 367 371 575 226 q 157 517 160 515 l 135 551 l 106 1124 q 190 1132 136 1129 q 286 1135 244 1135 l 363 1135 l 379 1135 q 489 1139 436 1135 q 588 1041 532 1106 q 713 900 644 976 l 706 1139 l 1046 1144 q 1171 1040 1119 1083 q 1271 968 1222 997 l 1274 1144 q 1471 1150 1338 1144 q 1676 1156 1604 1156 l 2207 92 m 1301 1129 q 1363 985 1322 1074 q 1453 793 1403 897 l 1444 786 l 1046 1129 q 964 1129 1004 1129 q 885 1131 924 1129 q 732 1121 806 1131 q 775 937 743 1057 q 817 758 807 817 l 808 753 l 503 1121 q 373 1122 422 1121 q 282 1125 324 1124 q 135 1117 206 1125 l 135 1101 q 925 108 529 604 l 1301 114 q 1252 312 1276 217 q 1208 495 1228 407 q 1176 651 1188 583 q 1383 478 1276 575 q 1608 274 1489 382 q 1794 108 1726 165 q 1893 108 1843 108 q 1994 107 1943 107 l 2018 107 q 2175 115 2097 107 l 2175 131 q 2023 444 2138 207 q 1829 839 1908 682 q 1664 1144 1750 996 q 1592 1144 1628 1144 q 1524 1146 1557 1144 q 1409 1143 1458 1146 q 1301 1129 1360 1140 z "},"x":{"ha":1300,"x_min":83,"x_max":1749,"o":"m 1128 1125 l 1118 685 l 1744 126 l 1749 18 l 1342 6 q 1118 96 1229 50 q 1104 68 1104 85 q 1107 44 1104 61 q 1110 26 1110 28 q 1106 10 1110 18 q 848 8 1003 10 q 692 6 693 6 q 688 74 688 39 q 690 162 688 113 q 693 243 692 211 q 692 276 692 265 l 692 293 l 128 544 l 115 579 l 83 1138 q 149 1133 115 1133 q 306 1145 197 1133 q 450 1157 414 1157 q 594 1131 532 1157 q 703 1036 657 1104 q 725 1067 719 1042 q 732 1149 728 1107 q 838 1158 783 1156 q 974 1160 892 1160 l 1118 1160 l 1128 1125 m 1110 1142 q 941 1140 1028 1142 q 769 1138 854 1139 q 744 1065 747 1122 q 738 999 740 1008 q 644 1065 703 1014 q 553 1133 585 1117 l 115 1128 q 305 962 193 1054 q 524 783 417 869 q 725 611 632 696 l 715 108 q 810 108 763 108 q 904 107 857 107 q 1008 109 979 107 q 1088 118 1036 111 q 1090 154 1089 128 q 1092 182 1092 181 l 1092 213 q 1092 256 1092 235 q 1100 300 1093 278 q 1231 197 1144 271 q 1324 118 1317 124 l 1722 118 q 1556 283 1636 210 q 1324 489 1476 356 q 1106 685 1171 622 l 1110 1142 z "},"y":{"ha":1199,"x_min":68,"x_max":1442,"o":"m 1168 526 l 1442 115 l 1442 10 q 1226 1 1364 3 q 1074 0 1088 0 q 935 90 1014 38 q 758 210 856 143 q 552 312 661 256 q 327 431 443 368 q 103 553 211 493 q 76 863 85 736 q 68 1135 68 989 q 288 1144 139 1143 q 514 1154 436 1146 q 597 1093 519 1151 q 708 1024 675 1035 l 714 1149 q 850 1153 760 1149 q 982 1157 940 1157 q 1022 1157 1003 1157 q 1065 1154 1040 1157 l 1168 526 m 1047 1139 q 963 1140 1019 1139 q 878 1142 906 1142 q 798 1139 836 1142 q 725 1128 760 1136 l 732 983 q 637 1051 706 1000 q 525 1132 568 1101 q 322 1131 424 1132 q 118 1128 219 1129 l 114 1117 q 320 944 201 1040 q 566 744 439 847 q 771 575 693 642 q 880 407 807 524 q 990 233 953 290 q 1079 111 1026 176 l 1408 108 l 1419 121 q 1286 332 1354 224 q 1149 531 1218 440 l 1058 1113 l 1047 1139 z "},"z":{"ha":1424,"x_min":83,"x_max":1757,"o":"m 121 1140 q 113 1119 113 1129 q 130 1084 113 1108 q 149 1051 147 1060 l 253 907 l 739 907 l 775 121 l 788 106 l 1707 99 q 1725 115 1725 100 q 1719 133 1725 122 q 1713 147 1714 143 q 1745 97 1733 138 q 1757 15 1757 56 l 1749 0 l 767 15 l 753 26 l 732 401 l 714 413 l 274 418 l 121 560 q 92 837 101 689 q 83 1144 83 985 q 393 1147 271 1144 q 688 1151 515 1149 q 957 1154 861 1154 q 986 1156 965 1154 q 1017 1157 1007 1157 q 1056 1149 1042 1157 q 1069 1118 1069 1142 l 1122 406 l 1140 389 l 1558 385 q 1704 158 1644 269 l 1572 363 q 1365 380 1474 375 q 1122 385 1257 385 l 1111 424 q 1096 771 1111 599 q 1051 1140 1081 943 q 1025 1144 1043 1144 q 992 1143 1017 1144 q 954 1142 968 1142 l 121 1140 z "},"¢":{"ha":969,"x_min":103,"x_max":1228,"o":"m 544 1022 l 703 1018 l 828 821 l 828 546 l 646 546 q 644 532 644 540 q 662 484 644 510 q 696 436 679 458 l 736 415 l 1090 411 q 1165 310 1101 392 q 1228 163 1228 228 l 1228 146 q 1181 146 1204 146 q 1133 147 1157 146 q 1080 144 1104 147 q 1035 133 1056 142 q 1058 85 1039 121 q 1076 28 1076 49 q 1071 0 1076 13 l 879 0 q 803 77 856 14 q 711 146 750 140 q 663 144 694 146 q 615 143 631 143 q 560 146 579 143 q 513 163 542 149 l 121 561 q 107 620 111 588 q 103 685 103 653 q 106 769 103 710 q 108 833 108 828 l 111 829 q 111 839 117 833 q 108 850 106 844 q 110 878 110 858 q 107 922 110 890 q 104 957 104 954 q 121 1017 104 990 q 142 1019 131 1019 q 158 1019 153 1019 l 179 1019 q 212 1021 200 1019 q 240 1031 224 1022 q 233 1075 240 1046 q 226 1118 226 1104 q 232 1149 226 1133 q 274 1151 244 1150 q 347 1153 303 1153 l 376 1153 q 460 1157 419 1153 q 496 1079 476 1119 q 544 1022 515 1039 m 453 1139 q 400 1139 426 1139 q 349 1140 374 1139 q 304 1139 326 1140 q 261 1133 282 1138 l 317 1018 q 279 1011 299 1013 q 233 1010 260 1010 q 191 1010 213 1010 q 149 1011 169 1010 q 122 988 128 1006 q 115 942 115 969 l 493 288 q 536 235 507 249 q 610 222 565 222 q 643 222 626 222 q 676 224 660 222 q 706 222 696 224 q 731 226 721 226 q 805 161 772 226 q 849 86 838 96 q 883 58 861 65 q 936 50 906 50 q 980 51 950 50 q 1024 53 1010 53 q 1050 51 1042 53 q 1018 129 1047 69 q 989 213 989 189 l 1204 222 q 1143 330 1168 288 q 1082 400 1118 372 q 887 403 990 400 q 715 408 783 406 l 682 436 l 468 785 q 460 801 464 792 q 456 817 456 811 q 464 833 456 825 q 536 839 492 838 q 586 840 581 840 q 681 839 633 840 q 776 836 729 838 l 792 844 q 686 1017 739 931 l 519 1017 l 453 1139 m 121 815 l 124 818 l 121 829 l 115 829 l 121 815 z "},"≠":{"ha":763,"x_min":21,"x_max":750,"o":"m 626 724 l 521 535 l 750 535 l 750 458 l 479 458 l 371 265 l 750 265 l 750 189 l 329 189 l 204 -35 l 136 4 l 239 189 l 21 189 l 21 265 l 282 265 l 389 458 l 21 458 l 21 535 l 432 535 l 558 763 l 626 724 z "},"∞":{"ha":990,"x_min":36,"x_max":956,"o":"m 675 543 q 712 556 690 550 q 761 561 733 561 q 897 509 838 561 q 956 383 956 457 l 956 371 q 902 235 956 296 q 768 174 849 174 l 751 174 q 583 242 663 182 q 496 321 513 307 q 408 236 451 278 q 233 174 328 174 q 222 174 225 174 q 89 235 142 174 q 36 371 36 296 l 36 388 q 99 510 43 460 q 231 561 156 561 q 330 537 275 561 q 496 413 385 513 q 583 488 546 457 q 675 543 621 519 m 285 479 q 231 489 257 489 q 140 447 174 489 q 106 360 106 404 q 144 273 106 307 q 238 239 183 239 q 292 249 251 239 q 356 278 332 258 q 450 367 379 297 q 353 443 388 419 q 285 479 319 467 m 725 243 q 756 239 740 239 q 847 273 808 239 q 886 360 886 307 q 852 447 886 406 q 761 489 818 489 q 704 478 735 489 q 640 444 674 467 q 542 367 606 421 q 631 284 600 311 q 725 243 663 257 z "},"±":{"ha":763,"x_min":14,"x_max":749,"o":"m 343 567 l 343 896 l 419 896 l 419 567 l 749 567 l 749 490 l 419 490 l 419 161 l 343 161 l 343 490 l 14 490 l 14 567 l 343 567 m 14 0 l 14 76 l 749 76 l 749 0 l 14 0 z "},"≤":{"ha":763,"x_min":40,"x_max":731,"o":"m 40 76 l 731 76 l 731 0 l 40 0 l 40 76 m 40 568 l 731 888 l 731 801 l 129 525 l 731 249 l 731 163 l 40 482 l 40 568 z "},"≥":{"ha":763,"x_min":40,"x_max":731,"o":"m 731 0 l 40 0 l 40 76 l 731 76 l 731 0 m 731 482 l 40 163 l 40 249 l 642 525 l 40 801 l 40 888 l 731 568 l 731 482 z "},"µ":{"ha":800,"x_min":44,"x_max":788,"o":"m 204 694 l 204 232 q 221 140 204 178 q 272 87 238 103 q 336 71 306 71 q 392 84 363 71 q 449 122 421 97 q 492 178 478 147 l 492 694 l 611 694 l 611 161 q 619 107 611 135 q 645 62 628 79 q 686 44 663 44 q 720 56 700 44 q 747 92 740 67 q 760 140 754 118 l 788 140 q 758 54 775 86 q 699 -1 742 22 q 619 -24 656 -24 q 578 -17 597 -24 q 537 6 560 -11 q 505 60 514 24 q 493 113 496 96 q 450 61 472 83 q 399 19 428 39 q 337 -12 371 -1 q 265 -24 303 -24 q 183 4 225 -24 q 135 43 144 36 l 135 11 q 153 -92 135 -35 q 176 -172 172 -149 q 181 -211 181 -194 q 160 -283 181 -257 q 113 -310 139 -310 q 65 -283 86 -310 q 44 -210 44 -257 q 49 -170 44 -193 q 69 -90 53 -147 q 85 11 85 -33 l 85 694 l 204 694 z "},"∂":{"ha":686,"x_min":36,"x_max":642,"o":"m 90 996 q 176 1024 125 1011 q 275 1036 226 1036 q 360 1024 308 1036 q 469 968 411 1011 q 566 858 528 925 q 623 706 604 790 q 642 546 642 621 q 624 371 642 482 q 572 186 606 260 q 508 73 538 113 q 438 10 479 33 q 362 -21 396 -12 q 297 -29 328 -29 q 162 10 218 -29 q 72 97 106 49 q 38 217 38 146 q 36 246 36 226 q 59 367 36 313 q 117 465 82 421 q 199 533 153 508 q 311 558 246 558 q 406 541 371 558 q 519 464 442 524 q 535 625 535 544 q 520 740 535 672 q 489 849 506 807 q 432 930 472 890 q 335 969 392 969 q 311 971 324 969 q 292 972 299 972 q 211 956 247 972 q 144 926 175 940 l 90 996 m 358 504 q 233 440 281 504 q 171 321 186 376 q 156 206 156 265 q 167 107 156 154 q 214 36 179 60 q 282 13 249 13 q 356 34 307 13 q 438 134 406 56 q 485 275 471 213 q 508 415 499 338 q 440 483 467 461 q 358 504 413 504 z "},"Σ":{"ha":990,"x_min":19,"x_max":965,"o":"m 865 814 l 838 814 q 776 938 810 903 q 625 972 743 972 l 260 972 l 639 475 l 231 4 l 746 4 q 860 35 824 4 q 933 161 896 67 l 965 161 q 928 -1 938 47 q 906 -150 918 -49 q 844 -139 869 -143 q 799 -135 818 -135 l 100 -135 l 19 -139 l 504 414 l 22 1044 q 90 1040 39 1044 q 167 1035 142 1035 l 857 1035 l 865 814 z "},"∏":{"ha":1143,"x_min":35,"x_max":1115,"o":"m 981 4 q 1013 -86 981 -64 q 1115 -108 1044 -108 l 1115 -140 l 690 -140 l 690 -108 q 792 -86 760 -108 q 824 4 824 -64 l 824 967 l 326 967 l 326 4 q 358 -86 326 -64 q 461 -108 390 -108 l 461 -140 l 35 -140 l 35 -108 q 138 -86 106 -108 q 169 4 169 -64 l 169 874 q 128 984 169 957 q 38 1011 86 1011 l 38 1043 l 1111 1043 l 1111 1011 q 1013 975 1044 1011 q 981 874 981 939 l 981 4 z "},"π":{"ha":763,"x_min":14,"x_max":736,"o":"m 308 557 q 276 256 292 368 q 249 86 261 144 q 219 6 236 28 q 182 -22 201 -17 q 151 -26 163 -26 q 107 -10 128 -26 q 83 26 86 7 q 79 50 79 44 q 90 90 79 72 q 120 127 107 111 q 156 172 133 143 q 183 239 179 201 l 224 557 l 158 557 q 105 544 131 557 q 67 513 79 531 l 38 469 l 14 469 q 39 540 26 504 q 75 603 53 571 q 130 656 97 635 q 207 676 163 676 l 725 676 l 725 557 l 550 557 q 538 397 542 475 q 533 231 533 318 q 555 141 533 161 q 592 113 576 121 q 624 106 607 106 q 670 123 647 106 q 700 168 693 140 q 707 210 706 200 l 736 210 q 704 71 736 126 q 648 2 672 15 q 606 -17 624 -11 q 569 -22 589 -22 q 520 -8 540 -22 q 481 34 500 7 q 453 90 463 61 q 440 152 443 118 q 438 232 438 186 q 442 333 438 289 l 465 557 l 308 557 z "},"∫":{"ha":381,"x_min":3,"x_max":404,"o":"m 263 378 q 249 137 263 233 q 220 -11 235 40 q 195 -82 206 -62 q 175 -114 185 -101 q 134 -137 165 -126 q 86 -149 103 -149 q 51 -141 65 -149 q 25 -118 38 -133 q 8 -89 13 -103 q 3 -65 3 -75 q 28 -17 3 -31 q 64 -4 54 -4 q 92 -13 81 -4 q 117 -35 104 -22 q 139 -49 129 -49 q 166 -3 157 -49 q 175 103 175 42 q 171 314 175 178 q 167 539 167 450 l 167 739 q 174 1003 167 911 q 195 1144 181 1096 q 228 1219 210 1192 q 265 1260 246 1247 q 310 1272 283 1272 q 343 1268 329 1272 q 372 1254 357 1264 q 395 1228 386 1244 q 404 1193 404 1213 q 387 1156 404 1176 q 332 1135 369 1135 q 297 1147 308 1135 q 277 1163 286 1158 q 263 1167 268 1167 q 238 1136 238 1167 q 256 887 249 1007 q 264 678 264 767 l 263 378 z "},"Ω":{"ha":1067,"x_min":47,"x_max":1022,"o":"m 457 0 l 47 0 l 47 225 l 68 225 q 98 156 81 172 q 160 140 115 140 l 379 140 l 376 179 q 238 238 289 206 q 148 325 186 269 q 92 440 110 381 q 75 554 75 499 q 87 653 75 606 q 128 753 99 700 q 193 834 158 806 q 278 892 228 863 q 396 939 329 922 q 535 956 463 956 q 674 939 607 956 q 791 893 740 922 q 876 835 842 864 q 953 732 911 807 q 994 554 994 657 q 978 439 994 494 q 923 328 961 383 q 831 238 885 272 q 693 179 776 204 l 690 140 l 910 140 q 971 157 953 140 q 1001 225 989 174 l 1022 225 l 1022 0 l 613 0 l 635 211 q 731 263 697 239 q 788 345 764 288 q 822 453 813 403 q 832 558 832 503 q 810 715 832 642 q 742 833 788 788 q 645 894 697 878 q 535 911 593 911 q 424 896 474 911 q 330 835 375 881 q 261 714 285 790 q 238 556 238 638 q 268 376 238 446 q 329 274 299 306 q 435 211 360 243 l 457 0 z "},"√":{"ha":763,"x_min":14,"x_max":715,"o":"m 14 625 l 217 725 l 490 165 l 667 1274 l 715 1267 l 507 -53 l 169 644 l 36 579 l 14 625 z "},"≈":{"ha":763,"x_min":19,"x_max":732,"o":"m 732 514 q 648 433 701 461 q 538 404 594 404 q 513 406 522 404 q 485 411 503 407 l 276 471 q 214 481 243 481 q 107 432 151 481 q 79 397 85 403 l 19 435 q 221 544 103 544 q 290 535 257 544 l 500 476 q 535 471 522 471 q 598 484 568 471 q 649 514 628 497 q 681 547 669 531 l 732 514 m 732 304 q 648 223 701 251 q 538 194 594 194 q 513 196 522 194 q 485 201 503 197 l 276 261 q 214 271 243 271 q 107 222 151 271 q 79 188 85 193 l 19 225 q 221 335 103 335 q 290 325 257 335 l 500 267 q 535 261 522 261 q 598 274 568 261 q 649 304 628 288 q 681 338 669 321 l 732 304 z "},"∆":{"ha":850,"x_min":8,"x_max":844,"o":"m 844 0 l 8 0 l 453 956 l 844 0 m 100 68 l 672 68 l 403 718 l 100 68 z "},"“":{"ha":1264,"x_min":94,"x_max":1235,"o":"m 475 1049 q 550 942 506 1013 q 647 788 594 871 l 651 640 q 546 700 603 657 q 436 785 489 743 q 465 786 446 786 q 513 784 485 786 q 575 781 540 782 q 619 785 599 781 l 619 803 q 553 913 608 818 q 467 1040 497 1008 l 140 1038 l 140 1014 l 289 785 l 549 607 q 565 606 554 606 q 599 609 578 606 q 621 613 619 613 q 651 592 644 613 l 651 272 q 628 264 644 267 q 600 261 613 261 l 561 261 q 536 260 544 261 q 372 326 458 290 q 221 401 285 361 q 103 510 157 442 q 99 775 103 600 q 94 1053 94 950 l 475 1049 m 1058 1049 q 1133 942 1089 1013 q 1231 788 1178 871 l 1235 640 q 1129 700 1186 657 q 1019 785 1072 743 q 1049 786 1029 786 q 1096 784 1068 786 q 1158 781 1124 782 q 1203 785 1182 781 l 1203 803 q 1136 913 1192 818 q 1050 1040 1081 1008 l 724 1038 l 724 1014 l 872 785 l 1132 607 q 1149 606 1138 606 q 1182 609 1161 606 q 1204 613 1203 613 q 1235 592 1228 613 l 1235 272 q 1212 264 1228 267 q 1183 261 1196 261 l 1144 261 q 1119 260 1128 261 q 955 326 1042 290 q 804 401 868 361 q 686 510 740 442 q 682 775 686 600 q 678 1053 678 950 l 1058 1049 z "},"”":{"ha":1150,"x_min":128,"x_max":1133,"o":"m 489 1068 q 575 954 532 1011 q 621 824 621 885 q 626 686 621 774 q 631 574 631 599 q 626 485 631 526 q 610 404 622 443 q 561 333 601 394 q 475 271 521 271 q 439 278 454 271 q 414 290 424 285 q 408 319 408 300 q 410 358 410 346 q 405 392 410 381 q 382 403 400 403 q 358 398 374 403 q 325 393 343 393 q 218 451 275 393 q 142 522 161 510 l 128 1049 l 138 1065 q 313 1067 201 1065 q 489 1068 424 1068 m 354 1058 q 158 1044 256 1051 q 228 929 190 985 q 304 832 265 874 l 472 842 q 475 810 475 822 q 465 740 475 782 q 442 647 454 699 l 447 640 q 476 636 464 636 q 540 702 517 636 q 576 782 563 768 q 598 815 589 796 q 607 851 607 833 q 549 966 607 896 q 482 1058 492 1036 l 354 1058 m 990 1068 q 1078 954 1033 1011 q 1124 824 1124 886 q 1128 686 1124 774 q 1133 574 1133 599 q 1129 485 1133 526 q 1113 404 1125 443 q 1064 333 1104 394 q 976 271 1024 271 q 940 278 956 271 q 917 290 925 285 q 911 319 911 300 q 913 358 913 346 q 908 392 913 381 q 885 403 903 403 q 860 398 876 403 q 826 393 844 393 q 751 422 788 393 q 644 522 697 472 l 631 1049 l 640 1065 q 815 1067 704 1065 q 990 1068 926 1068 m 857 1058 q 661 1044 758 1051 q 731 929 693 985 q 807 832 768 874 l 975 842 q 978 813 978 822 q 963 717 978 776 q 944 647 947 658 l 950 640 q 979 636 967 636 q 1041 702 1019 636 q 1076 782 1063 768 q 1099 815 1090 796 q 1108 851 1108 833 q 1051 966 1108 896 q 983 1058 993 1036 l 857 1058 z "},"‘":{"ha":643,"x_min":94,"x_max":651,"o":"m 475 1049 q 550 942 506 1013 q 647 788 594 871 l 651 640 q 546 700 603 657 q 436 785 489 743 q 465 786 446 786 q 513 784 485 786 q 575 781 540 782 q 619 785 599 781 l 619 803 q 553 913 608 818 q 467 1040 497 1008 l 140 1038 l 140 1014 l 289 785 l 549 607 q 565 606 554 606 q 599 609 578 606 q 621 613 619 613 q 651 592 644 613 l 651 272 q 628 264 644 267 q 600 261 613 261 l 561 261 q 536 260 544 261 q 372 326 458 290 q 221 401 285 361 q 103 510 157 442 q 99 775 103 600 q 94 1053 94 950 l 475 1049 z "},"’":{"ha":614,"x_min":128,"x_max":631,"o":"m 489 1068 q 575 954 532 1011 q 621 824 621 885 q 626 686 621 774 q 631 574 631 599 q 626 485 631 526 q 610 404 622 443 q 561 333 601 394 q 475 271 521 271 q 439 278 454 271 q 414 290 424 285 q 408 319 408 300 q 410 358 410 346 q 405 392 410 381 q 382 403 400 403 q 358 398 374 403 q 325 393 343 393 q 218 451 275 393 q 142 522 161 510 l 128 1049 l 138 1065 q 313 1067 201 1065 q 489 1068 424 1068 m 354 1058 q 158 1044 256 1051 q 228 929 190 985 q 304 832 265 874 l 472 842 q 475 810 475 822 q 465 740 475 782 q 442 647 454 699 l 447 640 q 476 636 464 636 q 540 702 517 636 q 576 782 563 768 q 598 815 589 796 q 607 851 607 833 q 549 966 607 896 q 482 1058 492 1036 l 354 1058 z "},"÷":{"ha":763,"x_min":14,"x_max":744,"o":"m 14 404 l 744 404 l 744 328 l 14 328 l 14 404 m 372 633 q 428 611 406 633 q 450 556 450 589 q 428 500 450 522 q 372 478 406 478 q 317 500 339 478 q 294 556 294 522 q 317 611 294 589 q 372 633 339 633 m 372 254 q 428 232 406 254 q 450 176 450 210 q 428 121 450 143 q 372 99 406 99 q 317 121 339 99 q 294 176 294 143 q 317 232 294 210 q 372 254 339 254 z "},"◊":{"ha":686,"x_min":25,"x_max":647,"o":"m 294 0 l 25 524 l 294 1035 l 378 1035 l 647 524 l 378 0 l 294 0 m 336 960 l 108 524 l 336 75 l 564 524 l 336 960 z "},"Ÿ":{"ha":1353,"x_min":61,"x_max":1301,"o":"m 303 69 q 263 16 274 54 q 251 -65 251 -22 q 208 -72 235 -72 q 114 -59 163 -72 q 63 -37 65 -46 q 61 -17 61 -28 q 81 51 61 25 q 149 128 100 76 q 199 163 178 133 q 240 222 221 193 q 272 275 246 243 q 303 329 297 307 q 269 469 286 394 q 251 593 251 543 q 271 701 251 651 q 338 790 290 750 q 416 901 357 864 q 538 960 475 939 q 611 981 600 981 q 650 961 631 981 q 683 926 669 942 q 742 935 710 922 q 807 961 775 949 q 856 1021 821 1003 q 936 1039 890 1039 q 1042 1021 993 1039 q 1113 972 1090 1003 q 1143 884 1136 940 q 1174 786 1150 828 q 1205 619 1199 744 q 1221 453 1211 494 q 1274 368 1247 410 q 1301 279 1301 319 q 1297 243 1301 263 q 1239 124 1261 151 q 1175 83 1217 97 q 1035 18 1096 39 q 904 -3 974 -3 q 819 6 863 -3 q 725 33 776 14 q 688 64 706 49 q 569 103 619 103 q 522 92 542 103 q 489 56 501 81 q 439 64 464 60 q 303 69 371 67 m 918 871 q 842 898 897 871 q 767 925 788 925 q 717 900 738 925 q 692 824 724 865 q 660 788 668 797 q 533 690 579 722 q 426 640 486 658 q 385 685 406 647 q 343 728 364 724 q 302 657 315 694 q 289 579 289 619 q 316 420 289 531 q 344 301 343 310 q 388 274 357 281 q 446 263 418 267 q 457 236 457 250 q 435 193 457 221 q 410 153 413 165 q 372 135 392 140 q 328 131 353 131 q 288 132 308 131 q 246 135 267 133 q 208 133 219 135 q 176 122 197 131 q 132 65 151 104 q 94 -10 113 26 q 156 -33 110 -25 q 210 -44 203 -42 l 224 -42 q 253 51 232 6 q 292 90 268 79 q 347 101 315 101 q 417 95 371 101 q 468 89 464 89 q 513 185 500 133 q 525 301 525 238 q 522 398 525 331 q 519 471 519 465 q 531 587 519 535 q 572 683 542 639 q 778 767 678 744 q 1107 828 879 789 q 1004 852 1089 833 q 918 871 919 871 m 840 40 q 874 36 857 36 q 922 42 890 36 q 971 47 954 47 q 996 46 988 47 q 1165 119 1097 82 q 1253 203 1232 156 q 1275 304 1275 251 q 1243 367 1269 332 q 1208 415 1217 403 q 1199 439 1200 426 q 1197 460 1197 451 q 1190 496 1197 485 q 1194 538 1194 517 q 1175 639 1194 572 q 1156 738 1156 706 l 1142 788 q 1113 789 1132 789 q 1020 777 1083 789 q 936 765 957 765 q 729 721 801 740 q 582 653 657 701 q 572 626 565 633 q 618 652 590 638 q 678 667 646 667 q 756 655 686 667 q 864 522 825 643 q 876 464 872 507 q 888 406 881 421 q 914 406 906 406 q 929 417 926 406 q 903 518 907 458 q 896 632 899 578 q 937 713 910 679 q 994 756 964 746 q 1043 767 1024 767 q 1115 735 1088 767 q 1168 617 1157 692 q 1178 485 1174 526 q 1174 467 1175 479 q 1174 449 1174 456 q 1169 401 1174 417 q 1142 379 1165 386 q 1097 379 1119 379 q 1051 381 1074 379 q 887 362 943 381 q 805 322 831 343 q 759 276 779 301 q 717 251 739 251 q 656 293 679 256 q 606 335 624 293 q 572 386 589 376 q 561 371 561 386 q 563 349 563 354 q 564 328 564 342 q 560 283 564 314 q 556 236 556 253 q 563 193 556 210 q 587 167 571 176 q 606 154 603 157 q 611 149 608 151 q 721 79 669 101 q 840 40 772 57 m 975 1004 q 958 1001 964 1001 q 933 1004 950 1001 q 908 1007 917 1007 q 878 994 890 1007 l 961 956 q 1076 926 1018 926 q 1114 931 1094 926 q 1053 979 1097 961 q 975 1004 999 996 m 1093 899 q 1064 896 1074 896 q 939 932 1019 896 q 844 972 858 968 l 832 961 q 836 944 829 951 q 850 931 843 938 q 1001 878 949 893 q 1114 864 1053 864 l 1118 871 q 1113 888 1118 882 q 1093 899 1107 893 m 621 950 q 517 929 567 950 q 411 871 467 908 q 381 829 393 853 q 369 781 369 806 q 372 760 369 774 q 410 746 394 750 q 438 746 425 742 q 570 813 511 768 q 661 918 629 858 q 641 940 649 933 q 621 950 633 947 m 676 889 q 565 781 597 810 q 475 731 532 753 q 435 721 467 724 q 399 699 403 718 q 450 681 426 681 q 502 702 461 681 q 597 768 543 724 q 692 874 650 813 q 676 889 690 885 m 1039 732 q 992 717 1011 738 q 958 678 974 697 q 933 633 942 660 q 924 575 924 606 q 927 526 924 544 q 951 433 931 508 q 985 406 967 414 q 1029 399 1004 399 q 1082 404 1047 399 q 1135 410 1117 410 q 1149 540 1142 475 l 1136 544 q 1097 518 1118 522 q 1051 536 1071 518 q 1027 570 1032 554 q 1022 600 1022 586 q 1039 664 1022 636 q 1076 681 1050 678 q 1108 688 1103 683 q 1077 715 1100 704 q 1039 732 1054 725 m 919 663 l 914 656 l 919 654 l 924 657 l 919 663 m 622 614 q 588 568 597 597 q 578 503 578 539 q 578 474 578 488 q 585 432 581 463 q 626 358 590 401 q 715 286 661 314 q 794 339 729 311 q 858 399 858 367 q 850 432 858 413 q 833 440 839 440 q 812 426 826 440 q 789 410 797 411 q 729 435 754 410 q 704 507 704 467 q 713 545 704 525 q 757 576 722 565 q 775 574 763 581 q 794 568 788 568 q 804 579 800 568 q 761 619 789 606 q 699 632 733 632 q 622 614 656 632 m 422 244 q 404 240 411 240 q 360 258 390 240 q 319 276 331 276 q 284 225 311 258 q 253 167 257 192 q 278 161 264 163 q 310 160 292 160 q 344 161 332 160 q 383 167 357 163 q 418 201 406 186 q 432 236 431 215 q 422 244 426 240 m 1200 288 q 1181 303 1188 296 q 1164 303 1175 310 q 1135 213 1164 264 q 1089 131 1107 163 q 1046 89 1061 101 q 1007 76 1031 76 q 970 83 1003 76 q 894 132 938 90 q 811 214 850 174 q 800 218 804 218 q 785 211 794 218 q 774 203 776 204 l 767 214 q 805 261 779 226 q 840 307 831 296 q 846 297 846 301 q 836 274 839 283 q 871 268 850 269 q 913 267 892 267 l 968 267 q 981 289 981 279 q 974 301 981 296 q 943 322 965 315 q 901 333 921 328 l 896 343 q 913 347 904 347 q 936 342 918 347 q 964 338 954 338 q 993 365 986 338 l 1007 367 q 998 333 1008 356 q 988 308 988 311 q 997 288 988 297 q 1018 279 1006 279 q 1058 298 1032 279 q 1097 319 1085 317 l 1140 329 q 1130 348 1140 340 q 1114 360 1119 356 l 1125 371 q 1168 338 1131 363 q 1200 288 1206 314 m 219 58 q 211 26 217 53 q 190 -4 206 -1 l 140 24 q 158 72 151 58 q 185 88 164 86 q 219 58 217 88 m 1092 285 q 1022 244 1057 264 q 1028 168 1028 211 q 1028 146 1028 157 q 1025 125 1025 132 l 1033 121 q 1125 294 1100 192 q 1111 296 1119 297 q 1092 285 1103 294 m 979 239 q 950 235 964 235 q 906 238 933 235 q 875 242 879 242 q 850 239 867 242 l 847 232 q 913 156 881 188 q 983 107 944 125 q 1007 125 1006 104 q 1007 155 1006 140 q 1010 186 1008 169 q 1003 219 1010 206 q 979 239 997 232 m 186 72 q 167 58 174 69 q 157 29 160 46 q 182 17 164 17 q 197 24 192 17 q 200 54 200 44 q 186 72 200 68 z "}}}
